<?xml version="1.0" encoding="UTF-8" standalone="no"?>
<svg
   xmlns:dc="http://purl.org/dc/elements/1.1/"
   xmlns:cc="http://creativecommons.org/ns#"
   xmlns:rdf="http://www.w3.org/1999/02/22-rdf-syntax-ns#"
   xmlns:svg="http://www.w3.org/2000/svg"
   xmlns="http://www.w3.org/2000/svg"
   version="1.1"
   id="svg8185"
   viewBox="0 0 294.96453 132.44382"
   height="37.37859mm"
   width="83.245544mm">
  <defs
     id="defs8187" />
  <metadata
     id="metadata8190">
    <rdf:RDF>
      <cc:Work
         rdf:about="">
        <dc:format>image/svg+xml</dc:format>
        <dc:type
           rdf:resource="http://purl.org/dc/dcmitype/StillImage" />
        <dc:title></dc:title>
      </cc:Work>
    </rdf:RDF>
  </metadata>
  <g
     transform="translate(-134.3503,-115.33188)"
     id="layer1">
    <rect
       y="115.33188"
       x="134.3503"
       height="132.44382"
       width="294.96454"
       id="rect12684"
       style="opacity:1;fill:#000000;fill-opacity:1;fill-rule:evenodd;stroke:none;stroke-width:1;stroke-linecap:butt;stroke-linejoin:bevel;stroke-miterlimit:4;stroke-dasharray:none;stroke-dashoffset:0;stroke-opacity:0.32238805" />
    <g
       transform="translate(-0.1100947,-17.409283)"
       id="text12665"
       style="font-style:normal;font-weight:normal;font-size:90px;line-height:125%;font-family:sans-serif;letter-spacing:0px;word-spacing:0px;fill:#000000;fill-opacity:1;stroke:none;stroke-width:1px;stroke-linecap:butt;stroke-linejoin:miter;stroke-opacity:1">
      <path
         id="path12670"
         style="font-style:normal;font-variant:normal;font-weight:normal;font-stretch:condensed;font-family:Impact;-inkscape-font-specification:'Impact Condensed';fill:#7893a4;fill-opacity:1"
         d="m 140.83426,158.3576 30.84961,0 0,14.23829 -12.34863,0 0,13.49121 11.55761,0 0,13.53515 -11.55761,0 0,15.64453 13.5791,0 0,14.23829 -32.08008,0 0,-71.14747 z" />
      <path
         id="path12672"
         style="font-style:normal;font-variant:normal;font-weight:normal;font-stretch:condensed;font-family:Impact;-inkscape-font-specification:'Impact Condensed';fill:#7893a4;fill-opacity:1"
         d="m 178.27567,158.3576 30.8496,0 0,14.23829 -12.34863,0 0,13.49121 11.55762,0 0,13.53515 -11.55762,0 0,15.64453 13.5791,0 0,14.23829 -32.08007,0 0,-71.14747 z" />
      <path
         id="path12674"
         style="font-style:normal;font-variant:normal;font-weight:normal;font-stretch:condensed;font-family:Impact;-inkscape-font-specification:'Impact Condensed';fill:#7893a4;fill-opacity:1"
         d="m 259.66238,158.3576 -9.40429,71.14747 -28.08106,0 -10.67871,-71.14747 19.51172,0 q 3.38379,29.39942 4.83398,49.70215 1.4502,-20.52246 3.03223,-36.47461 l 1.27442,-13.22754 19.51171,0 z" />
      <path
         id="path12676"
         style="font-style:normal;font-variant:normal;font-weight:normal;font-stretch:condensed;font-family:Impact;-inkscape-font-specification:'Impact Condensed';fill:#ffffff;fill-opacity:1"
         d="m 262.82645,158.3576 18.45703,0 q 8.74511,0 13.22754,1.36231 4.52636,1.3623 7.29492,5.53711 2.76855,4.13086 2.76855,13.35937 0,6.24024 -1.97754,8.70118 -1.93359,2.46093 -7.69043,3.77929 6.41602,1.4502 8.70118,4.83399 2.28515,3.33984 2.28515,10.2832 l 0,6.5918 q 0,7.20703 -1.66992,10.67871 -1.62598,3.47168 -5.22949,4.74609 -3.60352,1.27442 -14.76563,1.27442 l -21.40136,0 0,-71.14747 z m 18.50097,12.17286 0,15.82031 q 1.18653,-0.044 1.84571,-0.044 2.72461,0 3.47168,-1.31836 0.74707,-1.3623 0.74707,-7.69043 0,-3.33984 -0.61524,-4.6582 -0.61523,-1.3623 -1.62597,-1.71387 -0.9668,-0.35156 -3.82325,-0.3955 z m 0,26.89453 0,19.90722 q 3.91114,-0.13183 4.96582,-1.23046 1.09864,-1.09864 1.09864,-5.40528 l 0,-6.63574 q 0,-4.57031 -0.9668,-5.53711 -0.9668,-0.9668 -5.09766,-1.09863 z" />
      <path
         id="path12678"
         style="font-style:normal;font-variant:normal;font-weight:normal;font-stretch:condensed;font-family:Impact;-inkscape-font-specification:'Impact Condensed';fill:#ffffff;fill-opacity:1"
         d="m 330.32645,158.3576 0,71.14747 -18.28125,0 0,-71.14747 18.28125,0 z" />
      <path
         id="path12680"
         style="font-style:normal;font-variant:normal;font-weight:normal;font-stretch:condensed;font-family:Impact;-inkscape-font-specification:'Impact Condensed';fill:#ffffff;fill-opacity:1"
         d="m 376.82059,191.66815 0,14.28223 q 0,7.86621 -0.79102,11.55762 -0.79101,3.64746 -3.38379,6.85546 -2.59277,3.16407 -6.67969,4.70215 -4.04296,1.49414 -9.3164,1.49414 -5.88867,0 -9.97559,-1.27441 -4.08691,-1.31836 -6.37207,-3.91113 -2.24121,-2.63672 -3.20801,-6.32813 -0.96679,-3.73535 -0.96679,-11.16211 l 0,-14.9414 q 0,-8.12989 1.75781,-12.7002 1.75781,-4.57031 6.32813,-7.33887 4.57031,-2.76855 11.68945,-2.76855 5.97656,0 10.23926,1.80176 4.30664,1.75781 6.63574,4.61425 2.3291,2.85645 3.16406,5.88868 0.87891,3.03222 0.87891,9.22851 z m -17.75391,-4.39453 q 0,-4.48242 -0.4834,-5.625 -0.4834,-1.18652 -2.06543,-1.18652 -1.58203,0 -2.10937,1.18652 -0.52735,1.14258 -0.52735,5.625 l 0,26.32324 q 0,4.13086 0.52735,5.40528 0.52734,1.23046 2.06543,1.23046 1.58203,0 2.06543,-1.14257 0.52734,-1.14258 0.52734,-4.92188 l 0,-26.89453 z" />
      <path
         id="path12682"
         style="font-style:normal;font-variant:normal;font-weight:normal;font-stretch:condensed;font-family:Impact;-inkscape-font-specification:'Impact Condensed';fill:#ffffff;fill-opacity:1"
         d="m 423.05106,171.18964 0,44.91211 q 0,9.09668 -0.43946,11.77734 -0.39551,2.63672 -2.94433,5.58105 -2.54883,2.98829 -7.11914,4.52637 -4.52637,1.58203 -11.42579,1.58203 -8.48144,0 -13.62304,-2.90039 -5.1416,-2.85644 -5.31738,-11.29394 l 17.22656,0 q 0,3.86718 2.8125,3.86718 2.02148,0 2.68066,-1.18652 0.65918,-1.18652 0.65918,-4.96582 l 0,-4.39453 q -2.28515,2.06543 -4.83398,3.12012 -2.50489,1.05468 -5.27344,1.05468 -4.79004,0 -7.91016,-1.93359 -3.07617,-1.93359 -4.21875,-5.05371 -1.14257,-3.16406 -1.14257,-8.96484 l 0,-21.18165 q 0,-8.30566 2.98828,-11.95312 2.98828,-3.64746 9.09668,-3.64746 3.33984,0 6.06445,1.3623 2.76855,1.36231 4.92187,4.08692 l 1.27442,-4.39453 16.52344,0 z m -17.79786,15.46875 q 0,-3.99903 -0.48339,-5.09766 -0.43946,-1.09863 -2.02149,-1.09863 -1.53808,0 -2.19726,1.27441 -0.61524,1.23047 -0.61524,4.92188 l 0,19.59961 q 0,3.91113 0.4834,5.09765 0.4834,1.14258 2.02148,1.14258 1.75782,0 2.28516,-1.40625 0.52734,-1.40625 0.52734,-6.37207 l 0,-18.06152 z" />
    </g>
  </g>
</svg>
