<?xml version="1.0" encoding="UTF-8" standalone="no"?>
<svg
   xmlns:dc="http://purl.org/dc/elements/1.1/"
   xmlns:cc="http://creativecommons.org/ns#"
   xmlns:rdf="http://www.w3.org/1999/02/22-rdf-syntax-ns#"
   xmlns:svg="http://www.w3.org/2000/svg"
   xmlns="http://www.w3.org/2000/svg"
   xmlns:xlink="http://www.w3.org/1999/xlink"
   xmlns:sodipodi="http://sodipodi.sourceforge.net/DTD/sodipodi-0.dtd"
   xmlns:inkscape="http://www.inkscape.org/namespaces/inkscape"
   id="svg2"
   xml:space="preserve"
   enable-background="new 0 0 960 489"
   viewBox="0 0 896.37585 361.94632"
   height="361.94632"
   width="896.37585"
   y="0px"
   x="0px"
   version="1.1"
   inkscape:version="0.91 r13725"
   sodipodi:docname="jekyll-logo-speed.svg"><sodipodi:namedview
     pagecolor="#ffffff"
     bordercolor="#666666"
     borderopacity="1"
     objecttolerance="10"
     gridtolerance="10"
     guidetolerance="10"
     inkscape:pageopacity="0"
     inkscape:pageshadow="2"
     inkscape:window-width="1855"
     inkscape:window-height="951"
     id="namedview206"
     showgrid="false"
     fit-margin-top="0"
     fit-margin-left="0"
     fit-margin-right="0"
     fit-margin-bottom="0"
     inkscape:zoom="1.2416667"
     inkscape:cx="310.41727"
     inkscape:cy="203.25863"
     inkscape:window-x="65"
     inkscape:window-y="24"
     inkscape:window-maximized="1"
     inkscape:current-layer="svg2" /><metadata
     id="metadata252"><rdf:RDF><cc:Work
         rdf:about=""><dc:format>image/svg+xml</dc:format><dc:type
           rdf:resource="http://purl.org/dc/dcmitype/StillImage" /><dc:title></dc:title></cc:Work></rdf:RDF></metadata><defs
     id="defs250"><linearGradient
       y2="134.1638"
       x2="411.25879"
       y1="399.63571"
       x1="411.25879"
       gradientUnits="userSpaceOnUse"
       id="linearGradient8832"
       xlink:href="#SVGID_1_" /><filter
       id="filter8834"
       style="color-interpolation-filters:sRGB"><feGaussianBlur
         id="feGaussianBlur8836"
         result="blur"
         stdDeviation="19.54 0.01" /></filter><linearGradient
       y2="398.85181"
       x2="787.73462"
       y1="335.69629"
       x1="724.5791"
       gradientTransform="matrix(0.9138,-0.4062,0.4062,0.9138,-56.6658,215.7002)"
       gradientUnits="userSpaceOnUse"
       id="linearGradient3888"
       xlink:href="#tube_3_" /><linearGradient
       y2="422.10919"
       x2="739.06622"
       y1="383.875"
       x1="700.83197"
       gradientTransform="matrix(0.9138,-0.4062,0.4062,0.9138,-56.6658,215.7002)"
       gradientUnits="userSpaceOnUse"
       id="linearGradient3890"
       xlink:href="#liquid_2_" /><filter
       id="filter3918"
       style="color-interpolation-filters:sRGB"><feGaussianBlur
         id="feGaussianBlur3920"
         result="blur"
         stdDeviation="14.18 0.01" /></filter><linearGradient
       inkscape:collect="always"
       xlink:href="#tube_3_"
       id="linearGradient3534"
       gradientUnits="userSpaceOnUse"
       gradientTransform="matrix(0.9138,-0.4062,0.4062,0.9138,-56.6658,215.7002)"
       x1="724.5791"
       y1="335.69629"
       x2="787.73462"
       y2="398.85181" /><linearGradient
       inkscape:collect="always"
       xlink:href="#liquid_2_"
       id="linearGradient3536"
       gradientUnits="userSpaceOnUse"
       gradientTransform="matrix(0.9138,-0.4062,0.4062,0.9138,-56.6658,215.7002)"
       x1="700.83197"
       y1="383.875"
       x2="739.06622"
       y2="422.10919" /><linearGradient
       inkscape:collect="always"
       xlink:href="#SVGID_1_"
       id="linearGradient3538"
       gradientUnits="userSpaceOnUse"
       x1="411.25879"
       y1="399.63571"
       x2="411.25879"
       y2="134.1638" /></defs><rect
     id="bg"
     width="896.37585"
     height="361.94632"
     x="0"
     y="0"
     style="fill:#333333" /><g
     style="filter:url(#filter8834)"
     transform="translate(-23.10067,-60.402683)"
     id="g8740"><g
       style="opacity:0.3"
       id="g8742"><g
         id="g8744"><path
           id="path8746"
           d="m 253.384,231.366 c 4.415,3.528 12.361,1.47 17.659,-4.411 5.592,-6.175 6.475,-14.115 2.061,-17.644 -4.416,-3.529 -12.362,-1.47 -17.66,4.705 -5.592,6.175 -6.475,13.821 -2.06,17.35 z m -12.95,11.469 c -1.177,0 -3.237,2.058 -1.472,2.94 2.354,0.882 3.532,2.939 3.532,5.881 -2.06,12.057 -17.07,25.877 -22.957,30.582 -1.472,1.471 0.589,4.705 2.06,3.529 3.238,-2.646 10.007,-7.94 15.6,-14.998 -9.124,20.291 -26.784,46.462 -33.553,55.578 -26.488,36.757 -66.811,70.574 -94.477,70.574 -22.074,0 -40.911,-14.997 -45.031,-37.052 -0.294,-2.353 -3.532,-2.94 -2.943,0.294 5.003,30.289 28.255,42.051 56.51,42.051 30.904,0 67.178,-22.392 87.126,-45.306 32.279,-37.078 53.265,-79.67 47.673,-103.782 -2.355,-9.115 -8.536,-10.586 -12.068,-10.291 z m 198.579,80.63 c 8.535,-2.059 15.599,-6.835 15.599,-14.222 0,-0.738 -1.472,-0.738 -1.472,0 0,4.433 -5.003,8.047 -10.595,8.929 -13.245,2.059 -39.439,-13.474 -51.801,-29.354 13.245,5 40.322,-2.325 52.978,-11.441 11.773,-8.527 16.482,-17.924 17.365,-25.569 1.471,-12.646 -12.362,-19.989 -31.493,-12.638 -12.361,4.999 -27.077,15.882 -42.382,36.172 16.188,-26.759 47.974,-70.279 79.172,-98.214 37.967,-33.817 60.042,-27.347 25.9,8.529 -14.127,14.703 -40.616,33.817 -58.864,42.051 -5.592,2.353 -2.943,5.587 1.177,3.823 19.425,-8.528 45.326,-26.171 60.924,-40.875 46.209,-44.403 7.652,-77.926 -43.559,-30.876 -34.73,32.053 -57.393,65.575 -77.112,109.096 -6.77,8.233 -11.773,14.997 -17.954,20.29 -0.729,0.644 -1.313,1.271 -1.794,1.87 -16.997,14.565 -43.678,34.228 -60.258,34.464 -11.773,0.294 -16.776,-8.527 -14.716,-19.996 3.237,-17.938 21.78,-39.11 37.673,-46.461 20.603,-9.41 32.669,8.821 5.592,23.524 -10.302,5.293 -22.663,8.233 -27.667,8.233 -5.887,0 -5.298,2.353 -0.294,2.646 8.241,0.294 21.486,-3.234 30.315,-7.352 27.666,-13.232 29.432,-37.934 -0.589,-38.815 -32.669,-1.177 -71.814,26.759 -71.52,61.752 0.294,15.88 12.95,24.407 30.315,24.407 28.878,-0.262 54.708,-22.28 75.827,-41.644 3.032,-2.521 5.961,-5.293 8.888,-8.217 -7.358,18.819 -11.184,36.169 -9.418,49.108 1.178,9.41 6.476,13.82 10.596,17.35 0.883,0.588 2.649,0 1.471,-1.765 -6.181,-7.352 -4.415,-29.166 4.121,-50.338 7.065,14.118 34.731,32.003 63.575,25.533 z m -34.73,-61.353 c 33.847,-30.288 47.091,-3.234 25.606,13.232 -11.185,8.528 -33.259,14.998 -40.322,10.881 l -1.472,-0.882 c -0.883,-1.471 -1.766,-2.941 -2.354,-4.411 5.592,-6.763 12.067,-12.938 18.542,-18.82 z m 187.854,-34.321 c 13.539,1.471 7.946,-14.997 -5.886,-10.88 -6.181,1.764 -12.067,13.526 -16.482,23.819 -13.539,20.29 -36.202,47.932 -52.095,62.341 -14.128,12.056 -27.078,15.291 -11.185,-7.353 6.475,-9.115 14.716,-18.819 19.426,-28.523 11.184,-24.407 -12.656,-35.287 -31.787,-20.584 -11.184,8.527 -26.194,26.171 -37.967,35.875 -3.238,2.646 -2.355,6.47 0.883,3.823 9.417,-7.646 25.9,-24.995 40.027,-35.287 11.772,-9.116 16.482,-3.235 9.712,4.41 -9.418,10.881 -25.9,29.7 -30.02,41.757 -5.887,17.938 1.177,25.877 12.95,25.877 16.188,0 40.322,-25.289 56.51,-45.285 5.298,-6.763 11.185,-14.703 16.188,-22.349 -14.127,27.348 -28.844,54.989 -47.091,79.984 -25.9,35.288 -58.275,61.753 -88.885,61.753 -22.074,0 -41.205,-14.997 -45.326,-37.051 -0.294,-2.354 -3.237,-2.941 -2.943,0.293 5.003,30.289 28.255,42.051 56.51,42.051 30.904,0 60.63,-17.938 81.527,-39.992 42.088,-44.403 47.091,-94.393 60.042,-122.329 5.885,-12.35 11.477,-12.938 15.892,-12.35 z m 171.09,-42.815 c 6.181,-10.586 5.887,-18.82 -8.534,-18.82 -10.891,0.294 -30.61,7.939 -39.734,14.997 -2.061,2.059 -1.178,3.235 1.472,2.059 1.766,-0.588 3.826,-1.765 5.887,-2.646 10.301,-5.587 6.181,6.175 3.825,10.586 -12.361,21.466 -34.141,51.754 -45.619,66.751 -5.499,7.384 -11.699,14.759 -17.667,21.029 -11.054,10.485 -32.883,29.062 -49.4,35.313 -53.566,19.996 14.716,-71.162 20.309,-78.514 12.655,-15.88 40.911,-43.521 49.445,-57.342 6.182,-10.586 5.887,-18.82 -8.534,-18.82 -10.891,0.294 -30.609,7.939 -39.733,14.997 -2.061,2.059 -1.178,3.234 1.471,2.059 1.767,-0.588 3.826,-1.765 5.887,-2.646 10.301,-5.587 6.181,6.175 3.826,10.586 -12.361,21.466 -34.142,51.755 -45.62,66.752 -9.418,12.645 -20.896,25.289 -29.727,32.347 -3.531,2.94 -1.472,5.587 2.061,3.234 3.237,-2.059 7.946,-6.764 13.244,-12.351 -9.712,19.408 -17.659,46.756 7.947,49.99 21.82,2.983 47.764,-19.285 64.54,-35.778 1.849,-1.75 3.877,-3.806 6.02,-6.042 0.504,-0.515 0.997,-1.019 1.473,-1.507 -9.695,19.403 -17.587,46.684 7.984,49.914 27.961,3.822 62.691,-33.817 76.229,-47.639 2.649,-2.646 1.766,-7.057 -2.648,-2.646 -7.947,8.234 -34.73,32.641 -54.155,39.993 -53.566,19.995 14.716,-71.163 20.308,-78.515 12.653,-15.879 40.908,-43.521 49.443,-57.341 z"
           inkscape:connector-curvature="0" /></g></g><g
       id="g8748"><g
         id="g8750"><g
           id="g8752"><linearGradient
             y2="134.1638"
             x2="411.25879"
             y1="399.63571"
             x1="411.25879"
             gradientUnits="userSpaceOnUse"
             id="linearGradient8754"><stop
               id="stop8756"
               style="stop-color:#919191"
               offset="0" /><stop
               id="stop8758"
               style="stop-color:#FFFFFF"
               offset="1" /></linearGradient><path
             style="fill:url(#linearGradient8832)"
             id="path8760"
             d="m 250.558,228.539 c 4.415,3.529 12.361,1.471 17.659,-4.411 5.592,-6.175 6.475,-14.115 2.061,-17.644 -4.415,-3.529 -12.362,-1.47 -17.66,4.705 -5.593,6.176 -6.475,13.822 -2.06,17.35 z m -12.951,11.469 c -1.177,0 -3.237,2.059 -1.472,2.94 2.354,0.882 3.532,2.94 3.532,5.882 -2.06,12.056 -17.07,25.877 -22.957,30.582 -1.472,1.47 0.589,4.705 2.06,3.528 3.238,-2.646 10.007,-7.939 15.6,-14.997 -9.124,20.29 -26.784,46.462 -33.553,55.577 -26.488,36.758 -66.811,70.574 -94.477,70.574 -22.074,0 -40.911,-14.996 -45.031,-37.051 -0.294,-2.354 -3.532,-2.94 -2.943,0.294 5.003,30.288 28.255,42.05 56.51,42.05 30.904,0 67.178,-22.392 87.126,-45.306 32.279,-37.078 53.265,-79.669 47.673,-103.782 -2.355,-9.115 -8.535,-10.585 -12.068,-10.291 z m 198.579,80.631 c 8.535,-2.059 15.599,-6.835 15.599,-14.222 0,-0.739 -1.472,-0.739 -1.472,0 0,4.432 -5.003,8.046 -10.595,8.928 -13.245,2.059 -39.439,-13.473 -51.801,-29.353 13.245,4.999 40.322,-2.326 52.978,-11.441 11.773,-8.528 16.482,-17.925 17.365,-25.57 1.471,-12.645 -12.362,-19.989 -31.493,-12.638 -12.361,4.999 -27.077,15.883 -42.382,36.173 16.188,-26.76 47.974,-70.279 79.172,-98.215 37.967,-33.817 60.042,-27.347 25.901,8.529 -14.128,14.703 -40.617,33.817 -58.865,42.051 -5.592,2.353 -2.943,5.587 1.177,3.822 19.426,-8.527 45.326,-26.171 60.925,-40.874 46.208,-44.403 7.652,-77.926 -43.56,-30.876 -34.73,32.053 -57.393,65.575 -77.112,109.097 -6.77,8.233 -11.773,14.997 -17.954,20.29 -0.729,0.643 -1.313,1.27 -1.794,1.869 -16.997,14.566 -43.677,34.228 -60.258,34.465 -11.773,0.294 -16.776,-8.528 -14.716,-19.996 3.237,-17.938 21.78,-39.11 37.673,-46.462 20.603,-9.41 32.669,8.821 5.592,23.524 -10.301,5.294 -22.663,8.234 -27.666,8.234 -5.886,0 -5.298,2.353 -0.294,2.646 8.241,0.294 21.486,-3.235 30.315,-7.353 27.666,-13.232 29.432,-37.934 -0.589,-38.815 -32.67,-1.176 -71.814,26.76 -71.52,61.753 0.294,15.879 12.95,24.407 30.315,24.407 28.878,-0.263 54.708,-22.281 75.826,-41.644 3.032,-2.522 5.961,-5.293 8.888,-8.218 -7.358,18.82 -11.184,36.17 -9.418,49.108 1.178,9.41 6.476,13.821 10.596,17.35 0.883,0.588 2.649,0 1.471,-1.764 -6.181,-7.352 -4.415,-29.166 4.121,-50.338 7.065,14.117 34.732,32.001 63.575,25.533 z m -34.729,-61.353 c 33.847,-30.288 47.091,-3.234 25.606,13.232 -11.184,8.528 -33.258,14.997 -40.322,10.88 l -1.472,-0.882 c -0.883,-1.47 -1.766,-2.94 -2.354,-4.41 5.591,-6.763 12.066,-12.939 18.542,-18.82 z m 187.854,-34.321 c 13.538,1.47 7.946,-14.998 -5.887,-10.88 -6.181,1.764 -12.067,13.527 -16.482,23.819 -13.538,20.29 -36.201,47.932 -52.095,62.341 -14.127,12.057 -27.077,15.291 -11.184,-7.352 6.475,-9.116 14.716,-18.82 19.425,-28.523 11.184,-24.407 -12.656,-35.287 -31.787,-20.584 -11.184,8.527 -26.194,26.171 -37.967,35.875 -3.238,2.646 -2.355,6.469 0.883,3.822 9.418,-7.646 25.9,-24.995 40.027,-35.287 11.773,-9.116 16.482,-3.234 9.713,4.411 -9.418,10.88 -25.9,29.7 -30.021,41.757 -5.887,17.938 1.177,25.877 12.949,25.877 16.188,0 40.322,-25.289 56.51,-45.285 5.298,-6.764 11.185,-14.703 16.188,-22.349 -14.128,27.348 -28.844,54.989 -47.092,79.984 -25.899,35.287 -58.275,61.752 -88.885,61.752 -22.074,0 -41.205,-14.996 -45.325,-37.051 -0.295,-2.353 -3.238,-2.94 -2.944,0.294 5.003,30.288 28.255,42.05 56.51,42.05 30.904,0 60.63,-17.938 81.527,-39.991 42.088,-44.403 47.092,-94.394 60.042,-122.329 5.887,-12.351 11.48,-12.94 15.895,-12.351 z M 760.4,182.149 c 6.181,-10.586 5.886,-18.82 -8.535,-18.82 -10.89,0.294 -30.609,7.939 -39.733,14.997 -2.061,2.059 -1.178,3.235 1.472,2.059 1.766,-0.588 3.826,-1.764 5.886,-2.646 10.302,-5.587 6.182,6.175 3.826,10.586 -12.361,21.466 -34.142,51.755 -45.62,66.752 -5.499,7.383 -11.699,14.758 -17.667,21.029 -11.053,10.485 -32.883,29.062 -49.399,35.313 -53.567,19.996 14.716,-71.163 20.308,-78.515 12.656,-15.879 40.911,-43.521 49.446,-57.342 6.181,-10.586 5.886,-18.82 -8.535,-18.82 -10.89,0.294 -30.609,7.939 -39.733,14.997 -2.061,2.059 -1.178,3.234 1.472,2.059 1.766,-0.588 3.826,-1.765 5.887,-2.646 10.301,-5.587 6.181,6.175 3.825,10.586 -12.361,21.466 -34.142,51.754 -45.619,66.751 -9.418,12.645 -20.897,25.289 -29.728,32.347 -3.531,2.94 -1.471,5.588 2.062,3.235 3.237,-2.06 7.946,-6.764 13.244,-12.352 -9.713,19.408 -17.659,46.756 7.946,49.991 21.82,2.982 47.764,-19.286 64.541,-35.778 1.849,-1.751 3.877,-3.806 6.02,-6.042 0.504,-0.516 0.996,-1.019 1.472,-1.508 -9.695,19.404 -17.587,46.684 7.985,49.914 27.961,3.822 62.69,-33.817 76.229,-47.638 2.648,-2.646 1.766,-7.058 -2.649,-2.646 -7.946,8.233 -34.729,32.641 -54.154,39.992 -53.567,19.995 14.716,-71.163 20.308,-78.515 12.653,-15.878 40.908,-43.519 49.443,-57.34 z"
             inkscape:connector-curvature="0" /></g></g><defs
         id="defs8762" /><g
         style="opacity:0.75"
         id="g8768"
         mask="url(#SVGID_2_)"><g
           id="g8770"><path
             style="fill:#ffffff"
             id="path8772"
             d="m 250.558,228.539 c 4.415,3.529 12.361,1.471 17.659,-4.411 5.592,-6.175 6.475,-14.115 2.061,-17.644 -4.415,-3.529 -12.362,-1.47 -17.66,4.705 -5.593,6.176 -6.475,13.822 -2.06,17.35 z m -12.951,11.469 c -1.177,0 -3.237,2.059 -1.472,2.94 2.354,0.882 3.532,2.94 3.532,5.882 -2.06,12.056 -17.07,25.877 -22.957,30.582 -1.472,1.47 0.589,4.705 2.06,3.528 3.238,-2.646 10.007,-7.939 15.6,-14.997 -9.124,20.29 -26.784,46.462 -33.553,55.577 -26.488,36.758 -66.811,70.574 -94.477,70.574 -22.074,0 -40.911,-14.996 -45.031,-37.051 -0.294,-2.354 -3.532,-2.94 -2.943,0.294 5.003,30.288 28.255,42.05 56.51,42.05 30.904,0 67.178,-22.392 87.126,-45.306 32.279,-37.078 53.265,-79.669 47.673,-103.782 -2.355,-9.115 -8.535,-10.585 -12.068,-10.291 z m 198.579,80.631 c 8.535,-2.059 15.599,-6.835 15.599,-14.222 0,-0.739 -1.472,-0.739 -1.472,0 0,4.432 -5.003,8.046 -10.595,8.928 -13.245,2.059 -39.439,-13.473 -51.801,-29.353 13.245,4.999 40.322,-2.326 52.978,-11.441 11.773,-8.528 16.482,-17.925 17.365,-25.57 1.471,-12.645 -12.362,-19.989 -31.493,-12.638 -12.361,4.999 -27.077,15.883 -42.382,36.173 16.188,-26.76 47.974,-70.279 79.172,-98.215 37.967,-33.817 60.042,-27.347 25.901,8.529 -14.128,14.703 -40.617,33.817 -58.865,42.051 -5.592,2.353 -2.943,5.587 1.177,3.822 19.426,-8.527 45.326,-26.171 60.925,-40.874 46.208,-44.403 7.652,-77.926 -43.56,-30.876 -34.73,32.053 -57.393,65.575 -77.112,109.097 -6.77,8.233 -11.773,14.997 -17.954,20.29 -0.729,0.643 -1.313,1.27 -1.794,1.869 -16.997,14.566 -43.677,34.228 -60.258,34.465 -11.773,0.294 -16.776,-8.528 -14.716,-19.996 3.237,-17.938 21.78,-39.11 37.673,-46.462 20.603,-9.41 32.669,8.821 5.592,23.524 -10.301,5.294 -22.663,8.234 -27.666,8.234 -5.886,0 -5.298,2.353 -0.294,2.646 8.241,0.294 21.486,-3.235 30.315,-7.353 27.666,-13.232 29.432,-37.934 -0.589,-38.815 -32.67,-1.176 -71.814,26.76 -71.52,61.753 0.294,15.879 12.95,24.407 30.315,24.407 28.878,-0.263 54.708,-22.281 75.826,-41.644 3.032,-2.522 5.961,-5.293 8.888,-8.218 -7.358,18.82 -11.184,36.17 -9.418,49.108 1.178,9.41 6.476,13.821 10.596,17.35 0.883,0.588 2.649,0 1.471,-1.764 -6.181,-7.352 -4.415,-29.166 4.121,-50.338 7.065,14.117 34.732,32.001 63.575,25.533 z m -34.729,-61.353 c 33.847,-30.288 47.091,-3.234 25.606,13.232 -11.184,8.528 -33.258,14.997 -40.322,10.88 l -1.472,-0.882 c -0.883,-1.47 -1.766,-2.94 -2.354,-4.41 5.591,-6.763 12.066,-12.939 18.542,-18.82 z m 187.854,-34.321 c 13.538,1.47 7.946,-14.998 -5.887,-10.88 -6.181,1.764 -12.067,13.527 -16.482,23.819 -13.538,20.29 -36.201,47.932 -52.095,62.341 -14.127,12.057 -27.077,15.291 -11.184,-7.352 6.475,-9.116 14.716,-18.82 19.425,-28.523 11.184,-24.407 -12.656,-35.287 -31.787,-20.584 -11.184,8.527 -26.194,26.171 -37.967,35.875 -3.238,2.646 -2.355,6.469 0.883,3.822 9.418,-7.646 25.9,-24.995 40.027,-35.287 11.773,-9.116 16.482,-3.234 9.713,4.411 -9.418,10.88 -25.9,29.7 -30.021,41.757 -5.887,17.938 1.177,25.877 12.949,25.877 16.188,0 40.322,-25.289 56.51,-45.285 5.298,-6.764 11.185,-14.703 16.188,-22.349 -14.128,27.348 -28.844,54.989 -47.092,79.984 -25.899,35.287 -58.275,61.752 -88.885,61.752 -22.074,0 -41.205,-14.996 -45.325,-37.051 -0.295,-2.353 -3.238,-2.94 -2.944,0.294 5.003,30.288 28.255,42.05 56.51,42.05 30.904,0 60.63,-17.938 81.527,-39.991 42.088,-44.403 47.092,-94.394 60.042,-122.329 5.887,-12.351 11.48,-12.94 15.895,-12.351 z M 760.4,182.149 c 6.181,-10.586 5.886,-18.82 -8.535,-18.82 -10.89,0.294 -30.609,7.939 -39.733,14.997 -2.061,2.059 -1.178,3.235 1.472,2.059 1.766,-0.588 3.826,-1.764 5.886,-2.646 10.302,-5.587 6.182,6.175 3.826,10.586 -12.361,21.466 -34.142,51.755 -45.62,66.752 -5.499,7.383 -11.699,14.758 -17.667,21.029 -11.053,10.485 -32.883,29.062 -49.399,35.313 -53.567,19.996 14.716,-71.163 20.308,-78.515 12.656,-15.879 40.911,-43.521 49.446,-57.342 6.181,-10.586 5.886,-18.82 -8.535,-18.82 -10.89,0.294 -30.609,7.939 -39.733,14.997 -2.061,2.059 -1.178,3.234 1.472,2.059 1.766,-0.588 3.826,-1.765 5.887,-2.646 10.301,-5.587 6.181,6.175 3.825,10.586 -12.361,21.466 -34.142,51.754 -45.619,66.751 -9.418,12.645 -20.897,25.289 -29.728,32.347 -3.531,2.94 -1.471,5.588 2.062,3.235 3.237,-2.06 7.946,-6.764 13.244,-12.352 -9.713,19.408 -17.659,46.756 7.946,49.991 21.82,2.982 47.764,-19.286 64.541,-35.778 1.849,-1.751 3.877,-3.806 6.02,-6.042 0.504,-0.516 0.996,-1.019 1.472,-1.508 -9.695,19.404 -17.587,46.684 7.985,49.914 27.961,3.822 62.69,-33.817 76.229,-47.638 2.648,-2.646 1.766,-7.058 -2.649,-2.646 -7.946,8.233 -34.729,32.641 -54.154,39.992 -53.567,19.995 14.716,-71.163 20.308,-78.515 12.653,-15.878 40.908,-43.519 49.443,-57.34 z"
             inkscape:connector-curvature="0" /></g></g></g><g
       id="g8774"><g
         id="g8776"><path
           style="fill:#ffffff"
           id="path8778"
           d="m 661.764,281.891 c -0.14,0.146 -0.274,0.283 -0.412,0.427 -4.196,9.143 -7.592,19.445 -7.32,28.013 0.295,-9.433 4.534,-20.601 9.204,-29.947 -0.476,0.488 -0.968,0.991 -1.472,1.507 z"
           inkscape:connector-curvature="0" /><path
           style="fill:#ffffff"
           id="path8780"
           d="m 581.332,275.736 c -4.196,9.142 -7.591,19.445 -7.318,28.012 0.295,-9.459 4.558,-20.665 9.243,-30.028 -0.652,0.687 -1.293,1.36 -1.925,2.016 z"
           inkscape:connector-curvature="0" /><path
           style="fill:#ffffff"
           id="path8782"
           d="m 711.666,180.841 c 0.136,-0.166 0.285,-0.335 0.466,-0.516 9.124,-7.057 28.844,-14.703 39.733,-14.997 8.229,0 11.854,2.684 12.304,6.954 0.53,-5.417 -2.853,-8.954 -12.304,-8.954 -10.89,0.294 -30.609,7.939 -39.733,14.997 -1.413,1.413 -1.442,2.409 -0.466,2.516 z"
           inkscape:connector-curvature="0" /><path
           style="fill:#ffffff"
           id="path8784"
           d="m 744.801,278.013 c -7.946,8.233 -34.729,32.641 -54.154,39.992 -14.205,5.303 -19.84,2.787 -20.35,-3.907 -0.462,8.146 4.812,11.707 20.35,5.907 19.425,-7.352 46.208,-31.759 54.154,-39.992 2.147,-2.146 3.452,-2.196 3.929,-1.386 0.747,-2.206 -0.558,-3.982 -3.929,-0.614 z"
           inkscape:connector-curvature="0" /><path
           style="fill:#ffffff"
           id="path8786"
           d="m 567.951,282.836 c 8.83,-7.058 20.31,-19.702 29.728,-32.347 11.478,-14.997 33.258,-45.285 45.619,-66.751 1.331,-2.492 3.223,-7.329 2.762,-10.06 -0.325,2.695 -1.716,6.101 -2.762,8.06 -12.361,21.466 -34.142,51.754 -45.619,66.751 -9.418,12.645 -20.897,25.289 -29.728,32.347 -1.883,1.568 -2.166,3.045 -1.493,3.732 0.289,-0.539 0.768,-1.128 1.493,-1.732 z"
           inkscape:connector-curvature="0" /><path
           style="fill:#ffffff"
           id="path8788"
           d="m 631.648,174.255 c 0.137,-0.165 0.286,-0.335 0.466,-0.515 9.124,-7.058 28.844,-14.703 39.733,-14.997 8.229,0 11.854,2.684 12.305,6.954 0.529,-5.417 -2.854,-8.954 -12.305,-8.954 -10.89,0.294 -30.609,7.939 -39.733,14.997 -1.413,1.411 -1.441,2.407 -0.466,2.515 z"
           inkscape:connector-curvature="0" /><path
           style="fill:#ffffff"
           id="path8790"
           d="m 723.315,190.324 c 1.33,-2.492 3.223,-7.329 2.762,-10.059 -0.325,2.695 -1.716,6.101 -2.762,8.059 -12.361,21.466 -34.142,51.755 -45.62,66.752 -5.499,7.383 -11.699,14.758 -17.667,21.029 -11.053,10.485 -32.883,29.062 -49.399,35.313 -14.205,5.302 -19.84,2.787 -20.349,-3.907 -0.462,8.146 4.812,11.707 20.349,5.907 16.517,-6.252 38.347,-24.828 49.399,-35.313 5.968,-6.271 12.168,-13.646 17.667,-21.029 11.479,-14.997 33.259,-45.285 45.62,-66.752 z"
           inkscape:connector-curvature="0" /></g><g
         id="g8792"><path
           style="fill:#ffffff"
           id="path8794"
           d="m 514.847,300.244 c -8.886,7.584 -17.301,11.671 -18.37,8.028 -1.29,6.727 8.236,2.62 18.37,-6.028 15.894,-14.409 38.557,-42.051 52.095,-62.341 4.415,-10.292 10.302,-22.055 16.482,-23.819 7.621,-2.268 12.73,1.711 13.528,5.497 0.98,-4.139 -4.525,-10.176 -13.528,-7.497 -6.181,1.764 -12.067,13.527 -16.482,23.819 -13.539,20.29 -36.202,47.932 -52.095,62.341 z"
           inkscape:connector-curvature="0" /><path
           style="fill:#ffffff"
           id="path8796"
           d="m 506.95,247.412 c -0.327,1.483 -1.302,3.283 -2.993,5.194 -9.418,10.88 -25.9,29.7 -30.021,41.757 -1.59,4.845 -2.228,8.954 -2.091,12.381 0.132,-2.994 0.799,-6.446 2.091,-10.381 4.12,-12.057 20.603,-30.877 30.021,-41.757 2.558,-2.888 3.475,-5.523 2.993,-7.194 z"
           inkscape:connector-curvature="0" /><path
           style="fill:#ffffff"
           id="path8798"
           d="m 453.334,281.66 c 11.773,-9.704 26.783,-27.348 37.967,-35.875 15.42,-11.852 33.887,-7.074 34.619,8.003 0.87,-16.64 -18.535,-22.364 -34.619,-10.003 -11.184,8.527 -26.194,26.171 -37.967,35.875 -1.911,1.562 -2.378,3.524 -1.781,4.334 0.299,-0.759 0.872,-1.592 1.781,-2.334 z"
           inkscape:connector-curvature="0" /><path
           style="fill:#ffffff"
           id="path8800"
           d="m 375.458,358.222 c 0.549,-1.602 2.582,-0.866 2.824,1.07 4.12,22.055 23.251,37.051 45.325,37.051 30.609,0 62.985,-26.465 88.885,-61.752 18.248,-24.995 32.964,-52.637 47.092,-79.984 -1.411,2.155 -2.896,4.334 -4.414,6.504 -12.802,24.541 -26.319,49.074 -42.678,71.48 -25.899,35.287 -58.275,61.752 -88.885,61.752 -22.074,0 -41.205,-14.996 -45.325,-37.051 -0.295,-2.353 -3.238,-2.94 -2.944,0.294 0.037,0.216 0.082,0.421 0.12,0.636 z"
           inkscape:connector-curvature="0" /></g><g
         id="g8802"><path
           style="fill:#ffffff"
           id="path8804"
           d="m 320.568,279.74 c -10.301,5.294 -22.663,8.234 -27.666,8.234 -4.696,0 -5.261,1.495 -2.761,2.249 0.676,-0.152 1.583,-0.249 2.761,-0.249 5.003,0 17.365,-2.94 27.666,-8.234 11.909,-6.466 16.244,-13.614 15.613,-18.794 -0.555,4.932 -5.171,11.124 -15.613,16.794 z"
           inkscape:connector-curvature="0" /><path
           style="fill:#ffffff"
           id="path8806"
           d="m 364.624,283.953 c -5.54,14.862 -8.75,28.675 -8.607,39.965 0.25,-11.731 3.885,-25.968 9.827,-41.166 -0.406,0.406 -0.814,0.802 -1.22,1.201 z"
           inkscape:connector-curvature="0" /><path
           style="fill:#ffffff"
           id="path8808"
           d="m 276.883,308.513 c -0.39,9.535 4.716,16.421 15.136,16.161 16.581,-0.237 43.261,-19.898 60.258,-34.465 0.48,-0.6 1.064,-1.227 1.794,-1.869 6.181,-5.293 11.184,-12.057 17.954,-20.29 19.72,-43.521 42.382,-77.044 77.112,-109.097 34.491,-31.688 63.238,-26.826 64.218,-6.708 0.864,-21.762 -28.612,-28.003 -64.218,4.708 -34.73,32.053 -57.393,65.575 -77.112,109.097 -6.77,8.233 -11.773,14.997 -17.954,20.29 -0.729,0.643 -1.313,1.27 -1.794,1.869 -16.997,14.566 -43.677,34.228 -60.258,34.465 -9.676,0.241 -14.769,-5.68 -15.136,-14.161 z"
           inkscape:connector-curvature="0" /><path
           style="fill:#ffffff"
           id="path8810"
           d="m 430.594,224.881 c -3.229,1.358 -3.702,3.006 -2.738,3.819 0.477,-0.601 1.353,-1.237 2.738,-1.819 18.248,-8.234 44.737,-27.348 58.865,-42.051 12.647,-13.291 17.574,-22.541 16.842,-27.207 -0.646,5.083 -5.802,13.605 -16.842,25.207 -14.128,14.703 -40.617,33.817 -58.865,42.051 z"
           inkscape:connector-curvature="0" /><path
           style="fill:#ffffff"
           id="path8812"
           d="m 427.062,274.519 c 7.566,-5.8 10.82,-12.909 10.389,-18.367 -0.397,5.121 -3.717,11.254 -10.389,16.367 -11.184,8.528 -33.258,14.997 -40.322,10.88 l -1.472,-0.882 c -0.623,-1.036 -1.24,-2.073 -1.759,-3.109 -0.197,0.233 -0.4,0.463 -0.595,0.699 0.589,1.47 1.472,2.94 2.354,4.41 l 1.472,0.882 c 7.064,4.117 29.138,-2.352 40.322,-10.88 z"
           inkscape:connector-curvature="0" /><path
           style="fill:#ffffff"
           id="path8814"
           d="m 450.313,306 c 0,5 -5.003,8.255 -10.595,9.137 -12.496,1.942 -36.513,-11.67 -49.571,-26.562 -0.777,-0.197 -1.527,-0.369 -2.23,-0.634 12.362,15.879 38.556,31.438 51.801,29.379 5.592,-0.883 10.595,-4.483 10.595,-8.916 0,-0.603 0.971,-0.906 1.331,-0.524 0.083,-0.545 0.141,-0.879 0.141,-1.879 l -1.472,0 z"
           inkscape:connector-curvature="0" /><path
           style="fill:#ffffff"
           id="path8816"
           d="m 322.334,246.453 c 14.172,0.417 21.252,6.143 21.876,13.463 0.573,-8.252 -6.438,-15.009 -21.876,-15.463 -32.67,-1.176 -71.814,26.76 -71.52,61.753 0.002,0.12 0.012,0.235 0.015,0.354 0.921,-34.218 39.349,-61.264 71.505,-60.107 z"
           inkscape:connector-curvature="0" /><path
           style="fill:#ffffff"
           id="path8818"
           d="m 426.768,236.343 c -10.773,4.357 -23.336,13.189 -36.518,28.818 -2.124,3.287 -4.092,6.426 -5.864,9.354 15.305,-20.29 30.021,-31.174 42.382,-36.173 17.671,-6.791 30.812,-1.038 31.557,9.844 0.808,-12.152 -12.832,-19.039 -31.557,-11.843 z"
           inkscape:connector-curvature="0" /><path
           style="fill:#ffffff"
           id="path8820"
           d="m 364.828,331.673 c -0.115,6.95 1.041,12.514 3.552,15.626 0.51,-0.253 0.769,-0.87 0.112,-1.853 -2.343,-2.787 -3.541,-7.654 -3.664,-13.773 z"
           inkscape:connector-curvature="0" /></g><g
         id="g8822"><path
           style="fill:#ffffff"
           id="path8824"
           d="m 236.002,242.865 c 0.458,-0.489 1.109,-0.857 1.605,-0.857 3.532,-0.294 9.713,1.176 12.067,10.292 0.521,2.247 0.81,4.655 0.882,7.203 0.05,-3.293 -0.227,-6.379 -0.882,-9.203 -2.354,-9.116 -8.535,-10.586 -12.067,-10.292 -1.143,0 -3.107,1.937 -1.605,2.857 z"
           inkscape:connector-curvature="0" /><path
           style="fill:#ffffff"
           id="path8826"
           d="m 58.45,357.785 c 0.575,-1.344 2.627,-0.595 2.859,1.259 4.12,22.055 22.957,37.051 45.031,37.051 27.667,0 67.989,-33.816 94.477,-70.574 6.77,-9.115 24.429,-35.287 33.553,-55.577 -0.702,0.886 -1.422,1.743 -2.151,2.571 -9.519,19.483 -25.13,42.562 -31.402,51.006 -26.488,36.758 -66.811,70.574 -94.477,70.574 -22.074,0 -40.911,-14.996 -45.031,-37.051 -0.294,-2.354 -3.532,-2.94 -2.943,0.294 0.025,0.151 0.057,0.296 0.084,0.447 z"
           inkscape:connector-curvature="0" /><path
           style="fill:#ffffff"
           id="path8828"
           d="m 216.71,281.412 c 5.887,-4.705 20.897,-18.526 22.957,-30.582 0,-0.505 -0.047,-0.974 -0.117,-1.425 -2.426,11.918 -17.047,25.376 -22.84,30.007 -0.628,0.628 -0.61,1.576 -0.271,2.367 0.074,-0.13 0.159,-0.255 0.271,-0.367 z"
           inkscape:connector-curvature="0" /></g><path
         style="fill:#ffffff"
         id="path8830"
         d="m 252.618,213.19 c 5.298,-6.175 13.245,-8.234 17.66,-4.705 1.633,1.306 2.537,3.217 2.75,5.417 0.248,-3.03 -0.639,-5.73 -2.75,-7.417 -4.415,-3.529 -12.362,-1.47 -17.66,4.705 -3.528,3.896 -5.176,8.374 -4.808,12.038 0.278,-3.221 1.899,-6.827 4.808,-10.038 z"
         inkscape:connector-curvature="0" /></g></g><g
     style="filter:url(#filter3918)"
     transform="translate(-17.10067,-60.402683)"
     id="g3852"><path
       style="opacity:0.3"
       d="m 802.411,80.363 c -0.151,0.607 -0.155,1.259 -0.027,1.948 0,0 2.065,13.708 -0.279,19.809 l -99.675,259.171 0.008,0.003 c -7.113,19.036 2.419,40.289 21.429,47.601 19.009,7.311 40.325,-2.079 47.801,-20.976 l 0.009,0.004 99.675,-259.172 c 1.949,-5.07 13.064,-14.892 13.064,-14.892 0.558,-0.425 0.99,-0.913 1.285,-1.464 l 0.049,-0.101 c 0.054,-0.108 0.116,-0.212 0.159,-0.325 2.57,-6.683 -14.008,-19.279 -37.028,-28.132 -23.021,-8.854 -43.767,-10.613 -46.337,-3.93 -0.044,0.113 -0.068,0.231 -0.101,0.348 l -0.032,0.108 z"
       id="path3854"
       inkscape:connector-curvature="0" /><linearGradient
       gradientTransform="matrix(0.9138,-0.4062,0.4062,0.9138,-56.6658,215.7002)"
       y2="398.85181"
       x2="787.73462"
       y1="335.69629"
       x1="724.5791"
       gradientUnits="userSpaceOnUse"
       id="linearGradient3856"><stop
         id="stop3858"
         style="stop-color:#919191"
         offset="0" /><stop
         id="stop3860"
         style="stop-color:#FFFFFF"
         offset="1" /></linearGradient><path
       style="fill:url(#linearGradient3888)"
       d="m 799.53,78.16 c -0.152,0.607 -0.156,1.259 -0.027,1.948 0,0 2.065,13.708 -0.28,19.809 l -99.675,259.171 0.009,0.003 c -7.113,19.036 2.419,40.289 21.429,47.601 19.008,7.311 40.325,-2.079 47.801,-20.976 l 0.009,0.004 99.675,-259.172 c 1.948,-5.07 13.064,-14.892 13.064,-14.892 0.558,-0.425 0.99,-0.912 1.285,-1.464 l 0.048,-0.101 c 0.054,-0.108 0.116,-0.212 0.159,-0.325 2.57,-6.683 -14.008,-19.279 -37.027,-28.132 -23.021,-8.854 -43.767,-10.613 -46.337,-3.93 -0.044,0.113 -0.068,0.231 -0.101,0.348 l -0.032,0.108 z"
       id="path3862"
       inkscape:connector-curvature="0" /><linearGradient
       gradientTransform="matrix(0.9138,-0.4062,0.4062,0.9138,-56.6658,215.7002)"
       y2="422.10919"
       x2="739.06622"
       y1="383.875"
       x1="700.83197"
       gradientUnits="userSpaceOnUse"
       id="linearGradient3864"><stop
         id="stop3866"
         style="stop-color:#990000"
         offset="0" /><stop
         id="stop3868"
         style="stop-color:#E80000"
         offset="1" /></linearGradient><path
       style="fill:url(#linearGradient3890)"
       d="m 830.797,195.407 -71.88,186.9 0.047,0.018 c -5.302,13.396 -20.729,20.365 -34.416,15.102 -13.687,-5.263 -21.094,-21.015 -16.053,-34.512 l 0,0 45.93,-119.426 c 0,0 5.736,-9.253 16.999,-15.836 11.263,-6.583 20.551,-5.193 33.058,-10.752 12.505,-5.56 26.315,-21.494 26.315,-21.494 z"
       id="path3870"
       inkscape:connector-curvature="0" /><ellipse
       style="fill:#333333"
       ry="7.29"
       rx="27.716999"
       cy="94.406998"
       cx="841.08502"
       transform="matrix(0.9334,0.359,-0.359,0.9334,89.9472,-295.6295)"
       id="ellipse3872" /><path
       style="opacity:0.3;fill:#ffffff"
       d="m 799.503,80.107 c 0,0 2.035,13.787 -0.28,19.809 l -99.675,259.171 0.009,0.003 c -7.113,19.036 2.419,40.289 21.429,47.601 3.299,1.269 6.666,2.022 10.02,2.324 -12.813,-9.64 -18.312,-26.88 -12.433,-42.611 l -0.009,-0.003 97.697,-254.031 c 0,10e-4 -13.299,-12.486 -16.758,-32.263 z"
       id="path3874"
       inkscape:connector-curvature="0" /><g
       id="g3876"><circle
         style="opacity:0.5;fill:#ffffff"
         id="circle3878"
         r="2.888"
         cy="247.29401"
         cx="767.41199" /><circle
         style="opacity:0.5;fill:#ffffff"
         id="circle3880"
         r="4.3540001"
         cy="268.23499"
         cx="786.34399" /><circle
         style="opacity:0.5;fill:#ffffff"
         id="circle3882"
         r="8.1669998"
         cy="293.138"
         cx="757.44299" /><circle
         style="opacity:0.5;fill:#ffffff"
         id="circle3884"
         r="4.3540001"
         cy="308.241"
         cx="744.21899" /><circle
         style="opacity:0.5;fill:#ffffff"
         id="circle3886"
         r="2.888"
         cy="340.54199"
         cx="761.56299" /></g></g><g
     id="test-tube"
     transform="translate(-45.10067,-60.402683)"><path
       id="shadow_2_"
       d="m 802.411,80.363 c -0.151,0.607 -0.155,1.259 -0.027,1.948 0,0 2.065,13.708 -0.279,19.809 l -99.675,259.171 0.008,0.003 c -7.113,19.036 2.419,40.289 21.429,47.601 19.009,7.311 40.325,-2.079 47.801,-20.976 l 0.009,0.004 99.675,-259.172 c 1.949,-5.07 13.064,-14.892 13.064,-14.892 0.558,-0.425 0.99,-0.913 1.285,-1.464 l 0.049,-0.101 c 0.054,-0.108 0.116,-0.212 0.159,-0.325 2.57,-6.683 -14.008,-19.279 -37.028,-28.132 -23.021,-8.854 -43.767,-10.613 -46.337,-3.93 -0.044,0.113 -0.068,0.231 -0.101,0.348 l -0.032,0.108 z"
       style="opacity:0.3"
       inkscape:connector-curvature="0" /><linearGradient
       id="tube_3_"
       gradientUnits="userSpaceOnUse"
       x1="724.5791"
       y1="335.69629"
       x2="787.73462"
       y2="398.85181"
       gradientTransform="matrix(0.9138,-0.4062,0.4062,0.9138,-56.6658,215.7002)"><stop
         offset="0"
         style="stop-color:#919191"
         id="stop13" /><stop
         offset="1"
         style="stop-color:#FFFFFF"
         id="stop15" /></linearGradient><path
       id="tube_2_"
       d="m 799.53,78.16 c -0.152,0.607 -0.156,1.259 -0.027,1.948 0,0 2.065,13.708 -0.28,19.809 l -99.675,259.171 0.009,0.003 c -7.113,19.036 2.419,40.289 21.429,47.601 19.008,7.311 40.325,-2.079 47.801,-20.976 l 0.009,0.004 99.675,-259.172 c 1.948,-5.07 13.064,-14.892 13.064,-14.892 0.558,-0.425 0.99,-0.912 1.285,-1.464 l 0.048,-0.101 c 0.054,-0.108 0.116,-0.212 0.159,-0.325 2.57,-6.683 -14.008,-19.279 -37.027,-28.132 -23.021,-8.854 -43.767,-10.613 -46.337,-3.93 -0.044,0.113 -0.068,0.231 -0.101,0.348 l -0.032,0.108 z"
       style="fill:url(#linearGradient3534)"
       inkscape:connector-curvature="0" /><linearGradient
       id="liquid_2_"
       gradientUnits="userSpaceOnUse"
       x1="700.83197"
       y1="383.875"
       x2="739.06622"
       y2="422.10919"
       gradientTransform="matrix(0.9138,-0.4062,0.4062,0.9138,-56.6658,215.7002)"><stop
         offset="0"
         style="stop-color:#990000"
         id="stop19" /><stop
         offset="1"
         style="stop-color:#E80000"
         id="stop21" /></linearGradient><path
       id="liquid"
       d="m 830.797,195.407 -71.88,186.9 0.047,0.018 c -5.302,13.396 -20.729,20.365 -34.416,15.102 -13.687,-5.263 -21.094,-21.015 -16.053,-34.512 l 0,0 45.93,-119.426 c 0,0 5.736,-9.253 16.999,-15.836 11.263,-6.583 20.551,-5.193 33.058,-10.752 12.505,-5.56 26.315,-21.494 26.315,-21.494 z"
       style="fill:url(#linearGradient3536)"
       inkscape:connector-curvature="0" /><ellipse
       id="top"
       transform="matrix(0.9334,0.359,-0.359,0.9334,89.9472,-295.6295)"
       cx="841.08502"
       cy="94.406998"
       rx="27.716999"
       ry="7.29"
       style="fill:#333333" /><path
       id="side-reflection"
       d="m 799.503,80.107 c 0,0 2.035,13.787 -0.28,19.809 l -99.675,259.171 0.009,0.003 c -7.113,19.036 2.419,40.289 21.429,47.601 3.299,1.269 6.666,2.022 10.02,2.324 -12.813,-9.64 -18.312,-26.88 -12.433,-42.611 l -0.009,-0.003 97.697,-254.031 c 0,10e-4 -13.299,-12.486 -16.758,-32.263 z"
       style="opacity:0.3;fill:#ffffff"
       inkscape:connector-curvature="0" /><g
       id="bubbles"><circle
         cx="767.41199"
         cy="247.29401"
         r="2.888"
         id="circle27"
         style="opacity:0.5;fill:#ffffff" /><circle
         cx="786.34399"
         cy="268.23499"
         r="4.3540001"
         id="circle29"
         style="opacity:0.5;fill:#ffffff" /><circle
         cx="757.44299"
         cy="293.138"
         r="8.1669998"
         id="circle31"
         style="opacity:0.5;fill:#ffffff" /><circle
         cx="744.21899"
         cy="308.241"
         r="4.3540001"
         id="circle33"
         style="opacity:0.5;fill:#ffffff" /><circle
         cx="761.56299"
         cy="340.54199"
         r="2.888"
         id="circle35"
         style="opacity:0.5;fill:#ffffff" /></g></g><g
     id="jekyll-text"
     transform="translate(-45.10067,-60.402683)"><g
       id="g38"
       style="opacity:0.3"><g
         id="g40"><path
           d="m 253.384,231.366 c 4.415,3.528 12.361,1.47 17.659,-4.411 5.592,-6.175 6.475,-14.115 2.061,-17.644 -4.416,-3.529 -12.362,-1.47 -17.66,4.705 -5.592,6.175 -6.475,13.821 -2.06,17.35 z m -12.95,11.469 c -1.177,0 -3.237,2.058 -1.472,2.94 2.354,0.882 3.532,2.939 3.532,5.881 -2.06,12.057 -17.07,25.877 -22.957,30.582 -1.472,1.471 0.589,4.705 2.06,3.529 3.238,-2.646 10.007,-7.94 15.6,-14.998 -9.124,20.291 -26.784,46.462 -33.553,55.578 -26.488,36.757 -66.811,70.574 -94.477,70.574 -22.074,0 -40.911,-14.997 -45.031,-37.052 -0.294,-2.353 -3.532,-2.94 -2.943,0.294 5.003,30.289 28.255,42.051 56.51,42.051 30.904,0 67.178,-22.392 87.126,-45.306 32.279,-37.078 53.265,-79.67 47.673,-103.782 -2.355,-9.115 -8.536,-10.586 -12.068,-10.291 z m 198.579,80.63 c 8.535,-2.059 15.599,-6.835 15.599,-14.222 0,-0.738 -1.472,-0.738 -1.472,0 0,4.433 -5.003,8.047 -10.595,8.929 -13.245,2.059 -39.439,-13.474 -51.801,-29.354 13.245,5 40.322,-2.325 52.978,-11.441 11.773,-8.527 16.482,-17.924 17.365,-25.569 1.471,-12.646 -12.362,-19.989 -31.493,-12.638 -12.361,4.999 -27.077,15.882 -42.382,36.172 16.188,-26.759 47.974,-70.279 79.172,-98.214 37.967,-33.817 60.042,-27.347 25.9,8.529 -14.127,14.703 -40.616,33.817 -58.864,42.051 -5.592,2.353 -2.943,5.587 1.177,3.823 19.425,-8.528 45.326,-26.171 60.924,-40.875 46.209,-44.403 7.652,-77.926 -43.559,-30.876 -34.73,32.053 -57.393,65.575 -77.112,109.096 -6.77,8.233 -11.773,14.997 -17.954,20.29 -0.729,0.644 -1.313,1.271 -1.794,1.87 -16.997,14.565 -43.678,34.228 -60.258,34.464 -11.773,0.294 -16.776,-8.527 -14.716,-19.996 3.237,-17.938 21.78,-39.11 37.673,-46.461 20.603,-9.41 32.669,8.821 5.592,23.524 -10.302,5.293 -22.663,8.233 -27.667,8.233 -5.887,0 -5.298,2.353 -0.294,2.646 8.241,0.294 21.486,-3.234 30.315,-7.352 27.666,-13.232 29.432,-37.934 -0.589,-38.815 -32.669,-1.177 -71.814,26.759 -71.52,61.752 0.294,15.88 12.95,24.407 30.315,24.407 28.878,-0.262 54.708,-22.28 75.827,-41.644 3.032,-2.521 5.961,-5.293 8.888,-8.217 -7.358,18.819 -11.184,36.169 -9.418,49.108 1.178,9.41 6.476,13.82 10.596,17.35 0.883,0.588 2.649,0 1.471,-1.765 -6.181,-7.352 -4.415,-29.166 4.121,-50.338 7.065,14.118 34.731,32.003 63.575,25.533 z m -34.73,-61.353 c 33.847,-30.288 47.091,-3.234 25.606,13.232 -11.185,8.528 -33.259,14.998 -40.322,10.881 l -1.472,-0.882 c -0.883,-1.471 -1.766,-2.941 -2.354,-4.411 5.592,-6.763 12.067,-12.938 18.542,-18.82 z m 187.854,-34.321 c 13.539,1.471 7.946,-14.997 -5.886,-10.88 -6.181,1.764 -12.067,13.526 -16.482,23.819 -13.539,20.29 -36.202,47.932 -52.095,62.341 -14.128,12.056 -27.078,15.291 -11.185,-7.353 6.475,-9.115 14.716,-18.819 19.426,-28.523 11.184,-24.407 -12.656,-35.287 -31.787,-20.584 -11.184,8.527 -26.194,26.171 -37.967,35.875 -3.238,2.646 -2.355,6.47 0.883,3.823 9.417,-7.646 25.9,-24.995 40.027,-35.287 11.772,-9.116 16.482,-3.235 9.712,4.41 -9.418,10.881 -25.9,29.7 -30.02,41.757 -5.887,17.938 1.177,25.877 12.95,25.877 16.188,0 40.322,-25.289 56.51,-45.285 5.298,-6.763 11.185,-14.703 16.188,-22.349 -14.127,27.348 -28.844,54.989 -47.091,79.984 -25.9,35.288 -58.275,61.753 -88.885,61.753 -22.074,0 -41.205,-14.997 -45.326,-37.051 -0.294,-2.354 -3.237,-2.941 -2.943,0.293 5.003,30.289 28.255,42.051 56.51,42.051 30.904,0 60.63,-17.938 81.527,-39.992 42.088,-44.403 47.091,-94.393 60.042,-122.329 5.885,-12.35 11.477,-12.938 15.892,-12.35 z m 171.09,-42.815 c 6.181,-10.586 5.887,-18.82 -8.534,-18.82 -10.891,0.294 -30.61,7.939 -39.734,14.997 -2.061,2.059 -1.178,3.235 1.472,2.059 1.766,-0.588 3.826,-1.765 5.887,-2.646 10.301,-5.587 6.181,6.175 3.825,10.586 -12.361,21.466 -34.141,51.754 -45.619,66.751 -5.499,7.384 -11.699,14.759 -17.667,21.029 -11.054,10.485 -32.883,29.062 -49.4,35.313 -53.566,19.996 14.716,-71.162 20.309,-78.514 12.655,-15.88 40.911,-43.521 49.445,-57.342 6.182,-10.586 5.887,-18.82 -8.534,-18.82 -10.891,0.294 -30.609,7.939 -39.733,14.997 -2.061,2.059 -1.178,3.234 1.471,2.059 1.767,-0.588 3.826,-1.765 5.887,-2.646 10.301,-5.587 6.181,6.175 3.826,10.586 -12.361,21.466 -34.142,51.755 -45.62,66.752 -9.418,12.645 -20.896,25.289 -29.727,32.347 -3.531,2.94 -1.472,5.587 2.061,3.234 3.237,-2.059 7.946,-6.764 13.244,-12.351 -9.712,19.408 -17.659,46.756 7.947,49.99 21.82,2.983 47.764,-19.285 64.54,-35.778 1.849,-1.75 3.877,-3.806 6.02,-6.042 0.504,-0.515 0.997,-1.019 1.473,-1.507 -9.695,19.403 -17.587,46.684 7.984,49.914 27.961,3.822 62.691,-33.817 76.229,-47.639 2.649,-2.646 1.766,-7.057 -2.648,-2.646 -7.947,8.234 -34.73,32.641 -54.155,39.993 -53.566,19.995 14.716,-71.163 20.308,-78.515 12.653,-15.879 40.908,-43.521 49.443,-57.341 z"
           id="path42"
           inkscape:connector-curvature="0" /></g></g><g
       id="g44"><g
         id="g46"><g
           id="g48"><linearGradient
             id="SVGID_1_"
             gradientUnits="userSpaceOnUse"
             x1="411.25879"
             y1="399.63571"
             x2="411.25879"
             y2="134.1638"><stop
               offset="0"
               style="stop-color:#919191"
               id="stop51" /><stop
               offset="1"
               style="stop-color:#FFFFFF"
               id="stop53" /></linearGradient><path
             d="m 250.558,228.539 c 4.415,3.529 12.361,1.471 17.659,-4.411 5.592,-6.175 6.475,-14.115 2.061,-17.644 -4.415,-3.529 -12.362,-1.47 -17.66,4.705 -5.593,6.176 -6.475,13.822 -2.06,17.35 z m -12.951,11.469 c -1.177,0 -3.237,2.059 -1.472,2.94 2.354,0.882 3.532,2.94 3.532,5.882 -2.06,12.056 -17.07,25.877 -22.957,30.582 -1.472,1.47 0.589,4.705 2.06,3.528 3.238,-2.646 10.007,-7.939 15.6,-14.997 -9.124,20.29 -26.784,46.462 -33.553,55.577 -26.488,36.758 -66.811,70.574 -94.477,70.574 -22.074,0 -40.911,-14.996 -45.031,-37.051 -0.294,-2.354 -3.532,-2.94 -2.943,0.294 5.003,30.288 28.255,42.05 56.51,42.05 30.904,0 67.178,-22.392 87.126,-45.306 32.279,-37.078 53.265,-79.669 47.673,-103.782 -2.355,-9.115 -8.535,-10.585 -12.068,-10.291 z m 198.579,80.631 c 8.535,-2.059 15.599,-6.835 15.599,-14.222 0,-0.739 -1.472,-0.739 -1.472,0 0,4.432 -5.003,8.046 -10.595,8.928 -13.245,2.059 -39.439,-13.473 -51.801,-29.353 13.245,4.999 40.322,-2.326 52.978,-11.441 11.773,-8.528 16.482,-17.925 17.365,-25.57 1.471,-12.645 -12.362,-19.989 -31.493,-12.638 -12.361,4.999 -27.077,15.883 -42.382,36.173 16.188,-26.76 47.974,-70.279 79.172,-98.215 37.967,-33.817 60.042,-27.347 25.901,8.529 -14.128,14.703 -40.617,33.817 -58.865,42.051 -5.592,2.353 -2.943,5.587 1.177,3.822 19.426,-8.527 45.326,-26.171 60.925,-40.874 46.208,-44.403 7.652,-77.926 -43.56,-30.876 -34.73,32.053 -57.393,65.575 -77.112,109.097 -6.77,8.233 -11.773,14.997 -17.954,20.29 -0.729,0.643 -1.313,1.27 -1.794,1.869 -16.997,14.566 -43.677,34.228 -60.258,34.465 -11.773,0.294 -16.776,-8.528 -14.716,-19.996 3.237,-17.938 21.78,-39.11 37.673,-46.462 20.603,-9.41 32.669,8.821 5.592,23.524 -10.301,5.294 -22.663,8.234 -27.666,8.234 -5.886,0 -5.298,2.353 -0.294,2.646 8.241,0.294 21.486,-3.235 30.315,-7.353 27.666,-13.232 29.432,-37.934 -0.589,-38.815 -32.67,-1.176 -71.814,26.76 -71.52,61.753 0.294,15.879 12.95,24.407 30.315,24.407 28.878,-0.263 54.708,-22.281 75.826,-41.644 3.032,-2.522 5.961,-5.293 8.888,-8.218 -7.358,18.82 -11.184,36.17 -9.418,49.108 1.178,9.41 6.476,13.821 10.596,17.35 0.883,0.588 2.649,0 1.471,-1.764 -6.181,-7.352 -4.415,-29.166 4.121,-50.338 7.065,14.117 34.732,32.001 63.575,25.533 z m -34.729,-61.353 c 33.847,-30.288 47.091,-3.234 25.606,13.232 -11.184,8.528 -33.258,14.997 -40.322,10.88 l -1.472,-0.882 c -0.883,-1.47 -1.766,-2.94 -2.354,-4.41 5.591,-6.763 12.066,-12.939 18.542,-18.82 z m 187.854,-34.321 c 13.538,1.47 7.946,-14.998 -5.887,-10.88 -6.181,1.764 -12.067,13.527 -16.482,23.819 -13.538,20.29 -36.201,47.932 -52.095,62.341 -14.127,12.057 -27.077,15.291 -11.184,-7.352 6.475,-9.116 14.716,-18.82 19.425,-28.523 11.184,-24.407 -12.656,-35.287 -31.787,-20.584 -11.184,8.527 -26.194,26.171 -37.967,35.875 -3.238,2.646 -2.355,6.469 0.883,3.822 9.418,-7.646 25.9,-24.995 40.027,-35.287 11.773,-9.116 16.482,-3.234 9.713,4.411 -9.418,10.88 -25.9,29.7 -30.021,41.757 -5.887,17.938 1.177,25.877 12.949,25.877 16.188,0 40.322,-25.289 56.51,-45.285 5.298,-6.764 11.185,-14.703 16.188,-22.349 -14.128,27.348 -28.844,54.989 -47.092,79.984 -25.899,35.287 -58.275,61.752 -88.885,61.752 -22.074,0 -41.205,-14.996 -45.325,-37.051 -0.295,-2.353 -3.238,-2.94 -2.944,0.294 5.003,30.288 28.255,42.05 56.51,42.05 30.904,0 60.63,-17.938 81.527,-39.991 42.088,-44.403 47.092,-94.394 60.042,-122.329 5.887,-12.351 11.48,-12.94 15.895,-12.351 z M 760.4,182.149 c 6.181,-10.586 5.886,-18.82 -8.535,-18.82 -10.89,0.294 -30.609,7.939 -39.733,14.997 -2.061,2.059 -1.178,3.235 1.472,2.059 1.766,-0.588 3.826,-1.764 5.886,-2.646 10.302,-5.587 6.182,6.175 3.826,10.586 -12.361,21.466 -34.142,51.755 -45.62,66.752 -5.499,7.383 -11.699,14.758 -17.667,21.029 -11.053,10.485 -32.883,29.062 -49.399,35.313 -53.567,19.996 14.716,-71.163 20.308,-78.515 12.656,-15.879 40.911,-43.521 49.446,-57.342 6.181,-10.586 5.886,-18.82 -8.535,-18.82 -10.89,0.294 -30.609,7.939 -39.733,14.997 -2.061,2.059 -1.178,3.234 1.472,2.059 1.766,-0.588 3.826,-1.765 5.887,-2.646 10.301,-5.587 6.181,6.175 3.825,10.586 -12.361,21.466 -34.142,51.754 -45.619,66.751 -9.418,12.645 -20.897,25.289 -29.728,32.347 -3.531,2.94 -1.471,5.588 2.062,3.235 3.237,-2.06 7.946,-6.764 13.244,-12.352 -9.713,19.408 -17.659,46.756 7.946,49.991 21.82,2.982 47.764,-19.286 64.541,-35.778 1.849,-1.751 3.877,-3.806 6.02,-6.042 0.504,-0.516 0.996,-1.019 1.472,-1.508 -9.695,19.404 -17.587,46.684 7.985,49.914 27.961,3.822 62.69,-33.817 76.229,-47.638 2.648,-2.646 1.766,-7.058 -2.649,-2.646 -7.946,8.233 -34.729,32.641 -54.154,39.992 -53.567,19.995 14.716,-71.163 20.308,-78.515 12.653,-15.878 40.908,-43.519 49.443,-57.34 z"
             id="path55"
             style="fill:url(#linearGradient3538)"
             inkscape:connector-curvature="0" /></g></g><defs
         id="defs57" /><g
         mask="url(#SVGID_2_)"
         id="g62"
         style="opacity:0.75"><g
           id="g64"><path
             d="m 250.558,228.539 c 4.415,3.529 12.361,1.471 17.659,-4.411 5.592,-6.175 6.475,-14.115 2.061,-17.644 -4.415,-3.529 -12.362,-1.47 -17.66,4.705 -5.593,6.176 -6.475,13.822 -2.06,17.35 z m -12.951,11.469 c -1.177,0 -3.237,2.059 -1.472,2.94 2.354,0.882 3.532,2.94 3.532,5.882 -2.06,12.056 -17.07,25.877 -22.957,30.582 -1.472,1.47 0.589,4.705 2.06,3.528 3.238,-2.646 10.007,-7.939 15.6,-14.997 -9.124,20.29 -26.784,46.462 -33.553,55.577 -26.488,36.758 -66.811,70.574 -94.477,70.574 -22.074,0 -40.911,-14.996 -45.031,-37.051 -0.294,-2.354 -3.532,-2.94 -2.943,0.294 5.003,30.288 28.255,42.05 56.51,42.05 30.904,0 67.178,-22.392 87.126,-45.306 32.279,-37.078 53.265,-79.669 47.673,-103.782 -2.355,-9.115 -8.535,-10.585 -12.068,-10.291 z m 198.579,80.631 c 8.535,-2.059 15.599,-6.835 15.599,-14.222 0,-0.739 -1.472,-0.739 -1.472,0 0,4.432 -5.003,8.046 -10.595,8.928 -13.245,2.059 -39.439,-13.473 -51.801,-29.353 13.245,4.999 40.322,-2.326 52.978,-11.441 11.773,-8.528 16.482,-17.925 17.365,-25.57 1.471,-12.645 -12.362,-19.989 -31.493,-12.638 -12.361,4.999 -27.077,15.883 -42.382,36.173 16.188,-26.76 47.974,-70.279 79.172,-98.215 37.967,-33.817 60.042,-27.347 25.901,8.529 -14.128,14.703 -40.617,33.817 -58.865,42.051 -5.592,2.353 -2.943,5.587 1.177,3.822 19.426,-8.527 45.326,-26.171 60.925,-40.874 46.208,-44.403 7.652,-77.926 -43.56,-30.876 -34.73,32.053 -57.393,65.575 -77.112,109.097 -6.77,8.233 -11.773,14.997 -17.954,20.29 -0.729,0.643 -1.313,1.27 -1.794,1.869 -16.997,14.566 -43.677,34.228 -60.258,34.465 -11.773,0.294 -16.776,-8.528 -14.716,-19.996 3.237,-17.938 21.78,-39.11 37.673,-46.462 20.603,-9.41 32.669,8.821 5.592,23.524 -10.301,5.294 -22.663,8.234 -27.666,8.234 -5.886,0 -5.298,2.353 -0.294,2.646 8.241,0.294 21.486,-3.235 30.315,-7.353 27.666,-13.232 29.432,-37.934 -0.589,-38.815 -32.67,-1.176 -71.814,26.76 -71.52,61.753 0.294,15.879 12.95,24.407 30.315,24.407 28.878,-0.263 54.708,-22.281 75.826,-41.644 3.032,-2.522 5.961,-5.293 8.888,-8.218 -7.358,18.82 -11.184,36.17 -9.418,49.108 1.178,9.41 6.476,13.821 10.596,17.35 0.883,0.588 2.649,0 1.471,-1.764 -6.181,-7.352 -4.415,-29.166 4.121,-50.338 7.065,14.117 34.732,32.001 63.575,25.533 z m -34.729,-61.353 c 33.847,-30.288 47.091,-3.234 25.606,13.232 -11.184,8.528 -33.258,14.997 -40.322,10.88 l -1.472,-0.882 c -0.883,-1.47 -1.766,-2.94 -2.354,-4.41 5.591,-6.763 12.066,-12.939 18.542,-18.82 z m 187.854,-34.321 c 13.538,1.47 7.946,-14.998 -5.887,-10.88 -6.181,1.764 -12.067,13.527 -16.482,23.819 -13.538,20.29 -36.201,47.932 -52.095,62.341 -14.127,12.057 -27.077,15.291 -11.184,-7.352 6.475,-9.116 14.716,-18.82 19.425,-28.523 11.184,-24.407 -12.656,-35.287 -31.787,-20.584 -11.184,8.527 -26.194,26.171 -37.967,35.875 -3.238,2.646 -2.355,6.469 0.883,3.822 9.418,-7.646 25.9,-24.995 40.027,-35.287 11.773,-9.116 16.482,-3.234 9.713,4.411 -9.418,10.88 -25.9,29.7 -30.021,41.757 -5.887,17.938 1.177,25.877 12.949,25.877 16.188,0 40.322,-25.289 56.51,-45.285 5.298,-6.764 11.185,-14.703 16.188,-22.349 -14.128,27.348 -28.844,54.989 -47.092,79.984 -25.899,35.287 -58.275,61.752 -88.885,61.752 -22.074,0 -41.205,-14.996 -45.325,-37.051 -0.295,-2.353 -3.238,-2.94 -2.944,0.294 5.003,30.288 28.255,42.05 56.51,42.05 30.904,0 60.63,-17.938 81.527,-39.991 42.088,-44.403 47.092,-94.394 60.042,-122.329 5.887,-12.351 11.48,-12.94 15.895,-12.351 z M 760.4,182.149 c 6.181,-10.586 5.886,-18.82 -8.535,-18.82 -10.89,0.294 -30.609,7.939 -39.733,14.997 -2.061,2.059 -1.178,3.235 1.472,2.059 1.766,-0.588 3.826,-1.764 5.886,-2.646 10.302,-5.587 6.182,6.175 3.826,10.586 -12.361,21.466 -34.142,51.755 -45.62,66.752 -5.499,7.383 -11.699,14.758 -17.667,21.029 -11.053,10.485 -32.883,29.062 -49.399,35.313 -53.567,19.996 14.716,-71.163 20.308,-78.515 12.656,-15.879 40.911,-43.521 49.446,-57.342 6.181,-10.586 5.886,-18.82 -8.535,-18.82 -10.89,0.294 -30.609,7.939 -39.733,14.997 -2.061,2.059 -1.178,3.234 1.472,2.059 1.766,-0.588 3.826,-1.765 5.887,-2.646 10.301,-5.587 6.181,6.175 3.825,10.586 -12.361,21.466 -34.142,51.754 -45.619,66.751 -9.418,12.645 -20.897,25.289 -29.728,32.347 -3.531,2.94 -1.471,5.588 2.062,3.235 3.237,-2.06 7.946,-6.764 13.244,-12.352 -9.713,19.408 -17.659,46.756 7.946,49.991 21.82,2.982 47.764,-19.286 64.541,-35.778 1.849,-1.751 3.877,-3.806 6.02,-6.042 0.504,-0.516 0.996,-1.019 1.472,-1.508 -9.695,19.404 -17.587,46.684 7.985,49.914 27.961,3.822 62.69,-33.817 76.229,-47.638 2.648,-2.646 1.766,-7.058 -2.649,-2.646 -7.946,8.233 -34.729,32.641 -54.154,39.992 -53.567,19.995 14.716,-71.163 20.308,-78.515 12.653,-15.878 40.908,-43.519 49.443,-57.34 z"
             id="path66"
             style="fill:#ffffff"
             inkscape:connector-curvature="0" /></g></g></g><g
       id="highlight"><g
         id="g69"><path
           d="m 661.764,281.891 c -0.14,0.146 -0.274,0.283 -0.412,0.427 -4.196,9.143 -7.592,19.445 -7.32,28.013 0.295,-9.433 4.534,-20.601 9.204,-29.947 -0.476,0.488 -0.968,0.991 -1.472,1.507 z"
           id="path71"
           style="fill:#ffffff"
           inkscape:connector-curvature="0" /><path
           d="m 581.332,275.736 c -4.196,9.142 -7.591,19.445 -7.318,28.012 0.295,-9.459 4.558,-20.665 9.243,-30.028 -0.652,0.687 -1.293,1.36 -1.925,2.016 z"
           id="path73"
           style="fill:#ffffff"
           inkscape:connector-curvature="0" /><path
           d="m 711.666,180.841 c 0.136,-0.166 0.285,-0.335 0.466,-0.516 9.124,-7.057 28.844,-14.703 39.733,-14.997 8.229,0 11.854,2.684 12.304,6.954 0.53,-5.417 -2.853,-8.954 -12.304,-8.954 -10.89,0.294 -30.609,7.939 -39.733,14.997 -1.413,1.413 -1.442,2.409 -0.466,2.516 z"
           id="path75"
           style="fill:#ffffff"
           inkscape:connector-curvature="0" /><path
           d="m 744.801,278.013 c -7.946,8.233 -34.729,32.641 -54.154,39.992 -14.205,5.303 -19.84,2.787 -20.35,-3.907 -0.462,8.146 4.812,11.707 20.35,5.907 19.425,-7.352 46.208,-31.759 54.154,-39.992 2.147,-2.146 3.452,-2.196 3.929,-1.386 0.747,-2.206 -0.558,-3.982 -3.929,-0.614 z"
           id="path77"
           style="fill:#ffffff"
           inkscape:connector-curvature="0" /><path
           d="m 567.951,282.836 c 8.83,-7.058 20.31,-19.702 29.728,-32.347 11.478,-14.997 33.258,-45.285 45.619,-66.751 1.331,-2.492 3.223,-7.329 2.762,-10.06 -0.325,2.695 -1.716,6.101 -2.762,8.06 -12.361,21.466 -34.142,51.754 -45.619,66.751 -9.418,12.645 -20.897,25.289 -29.728,32.347 -1.883,1.568 -2.166,3.045 -1.493,3.732 0.289,-0.539 0.768,-1.128 1.493,-1.732 z"
           id="path79"
           style="fill:#ffffff"
           inkscape:connector-curvature="0" /><path
           d="m 631.648,174.255 c 0.137,-0.165 0.286,-0.335 0.466,-0.515 9.124,-7.058 28.844,-14.703 39.733,-14.997 8.229,0 11.854,2.684 12.305,6.954 0.529,-5.417 -2.854,-8.954 -12.305,-8.954 -10.89,0.294 -30.609,7.939 -39.733,14.997 -1.413,1.411 -1.441,2.407 -0.466,2.515 z"
           id="path81"
           style="fill:#ffffff"
           inkscape:connector-curvature="0" /><path
           d="m 723.315,190.324 c 1.33,-2.492 3.223,-7.329 2.762,-10.059 -0.325,2.695 -1.716,6.101 -2.762,8.059 -12.361,21.466 -34.142,51.755 -45.62,66.752 -5.499,7.383 -11.699,14.758 -17.667,21.029 -11.053,10.485 -32.883,29.062 -49.399,35.313 -14.205,5.302 -19.84,2.787 -20.349,-3.907 -0.462,8.146 4.812,11.707 20.349,5.907 16.517,-6.252 38.347,-24.828 49.399,-35.313 5.968,-6.271 12.168,-13.646 17.667,-21.029 11.479,-14.997 33.259,-45.285 45.62,-66.752 z"
           id="path83"
           style="fill:#ffffff"
           inkscape:connector-curvature="0" /></g><g
         id="g85"><path
           d="m 514.847,300.244 c -8.886,7.584 -17.301,11.671 -18.37,8.028 -1.29,6.727 8.236,2.62 18.37,-6.028 15.894,-14.409 38.557,-42.051 52.095,-62.341 4.415,-10.292 10.302,-22.055 16.482,-23.819 7.621,-2.268 12.73,1.711 13.528,5.497 0.98,-4.139 -4.525,-10.176 -13.528,-7.497 -6.181,1.764 -12.067,13.527 -16.482,23.819 -13.539,20.29 -36.202,47.932 -52.095,62.341 z"
           id="path87"
           style="fill:#ffffff"
           inkscape:connector-curvature="0" /><path
           d="m 506.95,247.412 c -0.327,1.483 -1.302,3.283 -2.993,5.194 -9.418,10.88 -25.9,29.7 -30.021,41.757 -1.59,4.845 -2.228,8.954 -2.091,12.381 0.132,-2.994 0.799,-6.446 2.091,-10.381 4.12,-12.057 20.603,-30.877 30.021,-41.757 2.558,-2.888 3.475,-5.523 2.993,-7.194 z"
           id="path89"
           style="fill:#ffffff"
           inkscape:connector-curvature="0" /><path
           d="m 453.334,281.66 c 11.773,-9.704 26.783,-27.348 37.967,-35.875 15.42,-11.852 33.887,-7.074 34.619,8.003 0.87,-16.64 -18.535,-22.364 -34.619,-10.003 -11.184,8.527 -26.194,26.171 -37.967,35.875 -1.911,1.562 -2.378,3.524 -1.781,4.334 0.299,-0.759 0.872,-1.592 1.781,-2.334 z"
           id="path91"
           style="fill:#ffffff"
           inkscape:connector-curvature="0" /><path
           d="m 375.458,358.222 c 0.549,-1.602 2.582,-0.866 2.824,1.07 4.12,22.055 23.251,37.051 45.325,37.051 30.609,0 62.985,-26.465 88.885,-61.752 18.248,-24.995 32.964,-52.637 47.092,-79.984 -1.411,2.155 -2.896,4.334 -4.414,6.504 -12.802,24.541 -26.319,49.074 -42.678,71.48 -25.899,35.287 -58.275,61.752 -88.885,61.752 -22.074,0 -41.205,-14.996 -45.325,-37.051 -0.295,-2.353 -3.238,-2.94 -2.944,0.294 0.037,0.216 0.082,0.421 0.12,0.636 z"
           id="path93"
           style="fill:#ffffff"
           inkscape:connector-curvature="0" /></g><g
         id="g95"><path
           d="m 320.568,279.74 c -10.301,5.294 -22.663,8.234 -27.666,8.234 -4.696,0 -5.261,1.495 -2.761,2.249 0.676,-0.152 1.583,-0.249 2.761,-0.249 5.003,0 17.365,-2.94 27.666,-8.234 11.909,-6.466 16.244,-13.614 15.613,-18.794 -0.555,4.932 -5.171,11.124 -15.613,16.794 z"
           id="path97"
           style="fill:#ffffff"
           inkscape:connector-curvature="0" /><path
           d="m 364.624,283.953 c -5.54,14.862 -8.75,28.675 -8.607,39.965 0.25,-11.731 3.885,-25.968 9.827,-41.166 -0.406,0.406 -0.814,0.802 -1.22,1.201 z"
           id="path99"
           style="fill:#ffffff"
           inkscape:connector-curvature="0" /><path
           d="m 276.883,308.513 c -0.39,9.535 4.716,16.421 15.136,16.161 16.581,-0.237 43.261,-19.898 60.258,-34.465 0.48,-0.6 1.064,-1.227 1.794,-1.869 6.181,-5.293 11.184,-12.057 17.954,-20.29 19.72,-43.521 42.382,-77.044 77.112,-109.097 34.491,-31.688 63.238,-26.826 64.218,-6.708 0.864,-21.762 -28.612,-28.003 -64.218,4.708 -34.73,32.053 -57.393,65.575 -77.112,109.097 -6.77,8.233 -11.773,14.997 -17.954,20.29 -0.729,0.643 -1.313,1.27 -1.794,1.869 -16.997,14.566 -43.677,34.228 -60.258,34.465 -9.676,0.241 -14.769,-5.68 -15.136,-14.161 z"
           id="path101"
           style="fill:#ffffff"
           inkscape:connector-curvature="0" /><path
           d="m 430.594,224.881 c -3.229,1.358 -3.702,3.006 -2.738,3.819 0.477,-0.601 1.353,-1.237 2.738,-1.819 18.248,-8.234 44.737,-27.348 58.865,-42.051 12.647,-13.291 17.574,-22.541 16.842,-27.207 -0.646,5.083 -5.802,13.605 -16.842,25.207 -14.128,14.703 -40.617,33.817 -58.865,42.051 z"
           id="path103"
           style="fill:#ffffff"
           inkscape:connector-curvature="0" /><path
           d="m 427.062,274.519 c 7.566,-5.8 10.82,-12.909 10.389,-18.367 -0.397,5.121 -3.717,11.254 -10.389,16.367 -11.184,8.528 -33.258,14.997 -40.322,10.88 l -1.472,-0.882 c -0.623,-1.036 -1.24,-2.073 -1.759,-3.109 -0.197,0.233 -0.4,0.463 -0.595,0.699 0.589,1.47 1.472,2.94 2.354,4.41 l 1.472,0.882 c 7.064,4.117 29.138,-2.352 40.322,-10.88 z"
           id="path105"
           style="fill:#ffffff"
           inkscape:connector-curvature="0" /><path
           d="m 450.313,306 c 0,5 -5.003,8.255 -10.595,9.137 -12.496,1.942 -36.513,-11.67 -49.571,-26.562 -0.777,-0.197 -1.527,-0.369 -2.23,-0.634 12.362,15.879 38.556,31.438 51.801,29.379 5.592,-0.883 10.595,-4.483 10.595,-8.916 0,-0.603 0.971,-0.906 1.331,-0.524 0.083,-0.545 0.141,-0.879 0.141,-1.879 l -1.472,0 z"
           id="path107"
           style="fill:#ffffff"
           inkscape:connector-curvature="0" /><path
           d="m 322.334,246.453 c 14.172,0.417 21.252,6.143 21.876,13.463 0.573,-8.252 -6.438,-15.009 -21.876,-15.463 -32.67,-1.176 -71.814,26.76 -71.52,61.753 0.002,0.12 0.012,0.235 0.015,0.354 0.921,-34.218 39.349,-61.264 71.505,-60.107 z"
           id="path109"
           style="fill:#ffffff"
           inkscape:connector-curvature="0" /><path
           d="m 426.768,236.343 c -10.773,4.357 -23.336,13.189 -36.518,28.818 -2.124,3.287 -4.092,6.426 -5.864,9.354 15.305,-20.29 30.021,-31.174 42.382,-36.173 17.671,-6.791 30.812,-1.038 31.557,9.844 0.808,-12.152 -12.832,-19.039 -31.557,-11.843 z"
           id="path111"
           style="fill:#ffffff"
           inkscape:connector-curvature="0" /><path
           d="m 364.828,331.673 c -0.115,6.95 1.041,12.514 3.552,15.626 0.51,-0.253 0.769,-0.87 0.112,-1.853 -2.343,-2.787 -3.541,-7.654 -3.664,-13.773 z"
           id="path113"
           style="fill:#ffffff"
           inkscape:connector-curvature="0" /></g><g
         id="g115"><path
           d="m 236.002,242.865 c 0.458,-0.489 1.109,-0.857 1.605,-0.857 3.532,-0.294 9.713,1.176 12.067,10.292 0.521,2.247 0.81,4.655 0.882,7.203 0.05,-3.293 -0.227,-6.379 -0.882,-9.203 -2.354,-9.116 -8.535,-10.586 -12.067,-10.292 -1.143,0 -3.107,1.937 -1.605,2.857 z"
           id="path117"
           style="fill:#ffffff"
           inkscape:connector-curvature="0" /><path
           d="m 58.45,357.785 c 0.575,-1.344 2.627,-0.595 2.859,1.259 4.12,22.055 22.957,37.051 45.031,37.051 27.667,0 67.989,-33.816 94.477,-70.574 6.77,-9.115 24.429,-35.287 33.553,-55.577 -0.702,0.886 -1.422,1.743 -2.151,2.571 -9.519,19.483 -25.13,42.562 -31.402,51.006 -26.488,36.758 -66.811,70.574 -94.477,70.574 -22.074,0 -40.911,-14.996 -45.031,-37.051 -0.294,-2.354 -3.532,-2.94 -2.943,0.294 0.025,0.151 0.057,0.296 0.084,0.447 z"
           id="path119"
           style="fill:#ffffff"
           inkscape:connector-curvature="0" /><path
           d="m 216.71,281.412 c 5.887,-4.705 20.897,-18.526 22.957,-30.582 0,-0.505 -0.047,-0.974 -0.117,-1.425 -2.426,11.918 -17.047,25.376 -22.84,30.007 -0.628,0.628 -0.61,1.576 -0.271,2.367 0.074,-0.13 0.159,-0.255 0.271,-0.367 z"
           id="path121"
           style="fill:#ffffff"
           inkscape:connector-curvature="0" /></g><path
         d="m 252.618,213.19 c 5.298,-6.175 13.245,-8.234 17.66,-4.705 1.633,1.306 2.537,3.217 2.75,5.417 0.248,-3.03 -0.639,-5.73 -2.75,-7.417 -4.415,-3.529 -12.362,-1.47 -17.66,4.705 -3.528,3.896 -5.176,8.374 -4.808,12.038 0.278,-3.221 1.899,-6.827 4.808,-10.038 z"
         id="path123"
         style="fill:#ffffff"
         inkscape:connector-curvature="0" /></g></g><g
     style="display:none"
     display="none"
     id="logo-bg-light"
     transform="translate(-45.10067,-60.402683)"><g
       style="display:inline"
       display="inline"
       id="test-tube_1_"><path
         style="opacity:0.1"
         d="m 802.411,80.363 c -0.151,0.607 -0.155,1.259 -0.027,1.948 0,0 2.065,13.708 -0.279,19.809 l -99.675,259.171 0.008,0.003 c -7.113,19.036 2.419,40.289 21.429,47.601 19.009,7.311 40.325,-2.079 47.801,-20.976 l 0.009,0.004 99.675,-259.172 c 1.949,-5.07 13.064,-14.892 13.064,-14.892 0.558,-0.425 0.99,-0.913 1.285,-1.464 l 0.049,-0.101 c 0.054,-0.108 0.116,-0.212 0.159,-0.325 2.57,-6.683 -14.008,-19.279 -37.028,-28.132 -23.021,-8.854 -43.767,-10.613 -46.337,-3.93 -0.044,0.113 -0.068,0.231 -0.101,0.348 l -0.032,0.108 z"
         id="shadow_1_"
         inkscape:connector-curvature="0" /><linearGradient
         gradientTransform="matrix(0.9138,-0.4062,0.4062,0.9138,-56.6658,215.7002)"
         y2="398.85181"
         x2="787.73462"
         y1="335.69629"
         x1="724.5791"
         gradientUnits="userSpaceOnUse"
         id="tube_4_"><stop
           id="stop129"
           style="stop-color:#919191"
           offset="0" /><stop
           id="stop131"
           style="stop-color:#FFFFFF"
           offset="1" /></linearGradient><path
         style="fill:url(#tube_4_)"
         d="m 799.53,78.16 c -0.152,0.607 -0.156,1.259 -0.027,1.948 0,0 2.065,13.708 -0.28,19.809 l -99.675,259.171 0.009,0.003 c -7.113,19.036 2.419,40.289 21.429,47.601 19.008,7.311 40.325,-2.079 47.801,-20.976 l 0.009,0.004 99.675,-259.172 c 1.948,-5.07 13.064,-14.892 13.064,-14.892 0.558,-0.425 0.99,-0.912 1.285,-1.464 l 0.048,-0.101 c 0.054,-0.108 0.116,-0.212 0.159,-0.325 2.57,-6.683 -14.008,-19.279 -37.027,-28.132 -23.021,-8.854 -43.767,-10.613 -46.337,-3.93 -0.044,0.113 -0.068,0.231 -0.101,0.348 l -0.032,0.108 z"
         id="tube_1_"
         inkscape:connector-curvature="0" /><linearGradient
         gradientTransform="matrix(0.9138,-0.4062,0.4062,0.9138,-56.6658,215.7002)"
         y2="422.10919"
         x2="739.06622"
         y1="383.875"
         x1="700.83197"
         gradientUnits="userSpaceOnUse"
         id="liquid_3_"><stop
           id="stop135"
           style="stop-color:#990000"
           offset="0" /><stop
           id="stop137"
           style="stop-color:#E80000"
           offset="1" /></linearGradient><path
         style="fill:url(#liquid_3_)"
         d="m 830.797,195.407 -71.88,186.9 0.047,0.018 c -5.302,13.396 -20.729,20.365 -34.416,15.102 -13.687,-5.263 -21.094,-21.015 -16.053,-34.512 l 0,0 45.93,-119.426 c 0,0 5.736,-9.253 16.999,-15.836 11.263,-6.583 20.551,-5.193 33.058,-10.752 12.505,-5.56 26.315,-21.494 26.315,-21.494 z"
         id="liquid_1_"
         inkscape:connector-curvature="0" /><ellipse
         style="fill:#333333"
         ry="7.29"
         rx="27.716999"
         cy="94.406998"
         cx="841.08502"
         transform="matrix(0.9334,0.359,-0.359,0.9334,89.9472,-295.6295)"
         id="top_1_" /><path
         style="opacity:0.3;fill:#ffffff"
         d="m 799.503,80.107 c 0,0 2.035,13.787 -0.28,19.809 l -99.675,259.171 0.009,0.003 c -7.113,19.036 2.419,40.289 21.429,47.601 3.299,1.269 6.666,2.022 10.02,2.324 -12.813,-9.64 -18.312,-26.88 -12.433,-42.611 l -0.009,-0.003 97.697,-254.031 c 0,10e-4 -13.299,-12.486 -16.758,-32.263 z"
         id="side-reflection_1_"
         inkscape:connector-curvature="0" /><g
         id="bubbles_1_"><circle
           style="opacity:0.5;fill:#ffffff"
           id="circle143"
           r="2.888"
           cy="247.29401"
           cx="767.41199" /><circle
           style="opacity:0.5;fill:#ffffff"
           id="circle145"
           r="4.3540001"
           cy="268.23499"
           cx="786.34399" /><circle
           style="opacity:0.5;fill:#ffffff"
           id="circle147"
           r="8.1669998"
           cy="293.138"
           cx="757.44299" /><circle
           style="opacity:0.5;fill:#ffffff"
           id="circle149"
           r="4.3540001"
           cy="308.241"
           cx="744.21899" /><circle
           style="opacity:0.5;fill:#ffffff"
           id="circle151"
           r="2.888"
           cy="340.54199"
           cx="761.56299" /></g></g><g
       style="display:inline"
       display="inline"
       id="jekyll-text_1_"><g
         style="opacity:0.1"
         id="g154"><g
           id="g156"><path
             id="path158"
             d="m 253.384,231.366 c 4.415,3.528 12.361,1.47 17.659,-4.411 5.592,-6.175 6.475,-14.115 2.061,-17.644 -4.416,-3.529 -12.362,-1.47 -17.66,4.705 -5.592,6.175 -6.475,13.821 -2.06,17.35 z m -12.95,11.469 c -1.177,0 -3.237,2.058 -1.472,2.94 2.354,0.882 3.532,2.939 3.532,5.881 -2.06,12.057 -17.07,25.877 -22.957,30.582 -1.472,1.471 0.589,4.705 2.06,3.529 3.238,-2.646 10.007,-7.94 15.6,-14.998 -9.124,20.291 -26.784,46.462 -33.553,55.578 -26.488,36.757 -66.811,70.574 -94.477,70.574 -22.074,0 -40.911,-14.997 -45.031,-37.052 -0.294,-2.353 -3.532,-2.94 -2.943,0.294 5.003,30.289 28.255,42.051 56.51,42.051 30.904,0 67.178,-22.392 87.126,-45.306 32.279,-37.078 53.265,-79.67 47.673,-103.782 -2.355,-9.115 -8.536,-10.586 -12.068,-10.291 z m 198.579,80.63 c 8.535,-2.059 15.599,-6.835 15.599,-14.222 0,-0.738 -1.472,-0.738 -1.472,0 0,4.433 -5.003,8.047 -10.595,8.929 -13.245,2.059 -39.439,-13.474 -51.801,-29.354 13.245,5 40.322,-2.325 52.978,-11.441 11.773,-8.527 16.482,-17.924 17.365,-25.569 1.471,-12.646 -12.362,-19.989 -31.493,-12.638 -12.361,4.999 -27.077,15.882 -42.382,36.172 16.188,-26.759 47.974,-70.279 79.172,-98.214 37.967,-33.817 60.042,-27.347 25.9,8.529 -14.127,14.703 -40.616,33.817 -58.864,42.051 -5.592,2.353 -2.943,5.587 1.177,3.823 19.425,-8.528 45.326,-26.171 60.924,-40.875 46.209,-44.403 7.652,-77.926 -43.559,-30.876 -34.73,32.053 -57.393,65.575 -77.112,109.096 -6.77,8.233 -11.773,14.997 -17.954,20.29 -0.729,0.644 -1.313,1.271 -1.794,1.87 -16.997,14.565 -43.678,34.228 -60.258,34.464 -11.773,0.294 -16.776,-8.527 -14.716,-19.996 3.237,-17.938 21.78,-39.11 37.673,-46.461 20.603,-9.41 32.669,8.821 5.592,23.524 -10.302,5.293 -22.663,8.233 -27.667,8.233 -5.887,0 -5.298,2.353 -0.294,2.646 8.241,0.294 21.486,-3.234 30.315,-7.352 27.666,-13.232 29.432,-37.934 -0.589,-38.815 -32.669,-1.177 -71.814,26.759 -71.52,61.752 0.294,15.88 12.95,24.407 30.315,24.407 28.878,-0.262 54.708,-22.28 75.827,-41.644 3.032,-2.521 5.961,-5.293 8.888,-8.217 -7.358,18.819 -11.184,36.169 -9.418,49.108 1.178,9.41 6.476,13.82 10.596,17.35 0.883,0.588 2.649,0 1.471,-1.765 -6.181,-7.352 -4.415,-29.166 4.121,-50.338 7.065,14.118 34.731,32.003 63.575,25.533 z m -34.73,-61.353 c 33.847,-30.288 47.091,-3.234 25.606,13.232 -11.185,8.528 -33.259,14.998 -40.322,10.881 l -1.472,-0.882 c -0.883,-1.471 -1.766,-2.941 -2.354,-4.411 5.592,-6.763 12.067,-12.938 18.542,-18.82 z m 187.854,-34.321 c 13.539,1.471 7.946,-14.997 -5.886,-10.88 -6.181,1.764 -12.067,13.526 -16.482,23.819 -13.539,20.29 -36.202,47.932 -52.095,62.341 -14.128,12.056 -27.078,15.291 -11.185,-7.353 6.475,-9.115 14.716,-18.819 19.426,-28.523 11.184,-24.407 -12.656,-35.287 -31.787,-20.584 -11.184,8.527 -26.194,26.171 -37.967,35.875 -3.238,2.646 -2.355,6.47 0.883,3.823 9.417,-7.646 25.9,-24.995 40.027,-35.287 11.772,-9.116 16.482,-3.235 9.712,4.41 -9.418,10.881 -25.9,29.7 -30.02,41.757 -5.887,17.938 1.177,25.877 12.95,25.877 16.188,0 40.322,-25.289 56.51,-45.285 5.298,-6.763 11.185,-14.703 16.188,-22.349 -14.127,27.348 -28.844,54.989 -47.091,79.984 -25.9,35.288 -58.275,61.753 -88.885,61.753 -22.074,0 -41.205,-14.997 -45.326,-37.051 -0.294,-2.354 -3.237,-2.941 -2.943,0.293 5.003,30.289 28.255,42.051 56.51,42.051 30.904,0 60.63,-17.938 81.527,-39.992 42.088,-44.403 47.091,-94.393 60.042,-122.329 5.885,-12.35 11.477,-12.938 15.892,-12.35 z m 171.09,-42.815 c 6.181,-10.586 5.887,-18.82 -8.534,-18.82 -10.891,0.294 -30.61,7.939 -39.734,14.997 -2.061,2.059 -1.178,3.235 1.472,2.059 1.766,-0.588 3.826,-1.765 5.887,-2.646 10.301,-5.587 6.181,6.175 3.825,10.586 -12.361,21.466 -34.141,51.754 -45.619,66.751 -5.499,7.384 -11.699,14.759 -17.667,21.029 -11.054,10.485 -32.883,29.062 -49.4,35.313 -53.566,19.996 14.716,-71.162 20.309,-78.514 12.655,-15.88 40.911,-43.521 49.445,-57.342 6.182,-10.586 5.887,-18.82 -8.534,-18.82 -10.891,0.294 -30.609,7.939 -39.733,14.997 -2.061,2.059 -1.178,3.234 1.471,2.059 1.767,-0.588 3.826,-1.765 5.887,-2.646 10.301,-5.587 6.181,6.175 3.826,10.586 -12.361,21.466 -34.142,51.755 -45.62,66.752 -9.418,12.645 -20.896,25.289 -29.727,32.347 -3.531,2.94 -1.472,5.587 2.061,3.234 3.237,-2.059 7.946,-6.764 13.244,-12.351 -9.712,19.408 -17.659,46.756 7.947,49.99 21.82,2.983 47.764,-19.285 64.54,-35.778 1.849,-1.75 3.877,-3.806 6.02,-6.042 0.504,-0.515 0.997,-1.019 1.473,-1.507 -9.695,19.403 -17.587,46.684 7.984,49.914 27.961,3.822 62.691,-33.817 76.229,-47.639 2.649,-2.646 1.766,-7.057 -2.648,-2.646 -7.947,8.234 -34.73,32.641 -54.155,39.993 -53.566,19.995 14.716,-71.163 20.308,-78.515 12.653,-15.879 40.908,-43.521 49.443,-57.341 z"
             inkscape:connector-curvature="0" /></g></g><g
         id="g160"><g
           id="g162"><g
             id="g164"><linearGradient
               y2="134.1638"
               x2="411.25879"
               y1="399.63571"
               x1="411.25879"
               gradientUnits="userSpaceOnUse"
               id="SVGID_3_"><stop
                 id="stop167"
                 style="stop-color:#1A1A1A"
                 offset="0" /><stop
                 id="stop169"
                 style="stop-color:#4A4A4C"
                 offset="0.4026" /><stop
                 id="stop171"
                 style="stop-color:#333333"
                 offset="1" /></linearGradient><path
               style="fill:url(#SVGID_3_)"
               id="path173"
               d="m 250.558,228.539 c 4.415,3.529 12.361,1.471 17.659,-4.411 5.592,-6.175 6.475,-14.115 2.061,-17.644 -4.415,-3.529 -12.362,-1.47 -17.66,4.705 -5.593,6.176 -6.475,13.822 -2.06,17.35 z m -12.951,11.469 c -1.177,0 -3.237,2.059 -1.472,2.94 2.354,0.882 3.532,2.94 3.532,5.882 -2.06,12.056 -17.07,25.877 -22.957,30.582 -1.472,1.47 0.589,4.705 2.06,3.528 3.238,-2.646 10.007,-7.939 15.6,-14.997 -9.124,20.29 -26.784,46.462 -33.553,55.577 -26.488,36.758 -66.811,70.574 -94.477,70.574 -22.074,0 -40.911,-14.996 -45.031,-37.051 -0.294,-2.354 -3.532,-2.94 -2.943,0.294 5.003,30.288 28.255,42.05 56.51,42.05 30.904,0 67.178,-22.392 87.126,-45.306 32.279,-37.078 53.265,-79.669 47.673,-103.782 -2.355,-9.115 -8.535,-10.585 -12.068,-10.291 z m 198.579,80.631 c 8.535,-2.059 15.599,-6.835 15.599,-14.222 0,-0.739 -1.472,-0.739 -1.472,0 0,4.432 -5.003,8.046 -10.595,8.928 -13.245,2.059 -39.439,-13.473 -51.801,-29.353 13.245,4.999 40.322,-2.326 52.978,-11.441 11.773,-8.528 16.482,-17.925 17.365,-25.57 1.471,-12.645 -12.362,-19.989 -31.493,-12.638 -12.361,4.999 -27.077,15.883 -42.382,36.173 16.188,-26.76 47.974,-70.279 79.172,-98.215 37.967,-33.817 60.042,-27.347 25.901,8.529 -14.128,14.703 -40.617,33.817 -58.865,42.051 -5.592,2.353 -2.943,5.587 1.177,3.822 19.426,-8.527 45.326,-26.171 60.925,-40.874 46.208,-44.403 7.652,-77.926 -43.56,-30.876 -34.73,32.053 -57.393,65.575 -77.112,109.097 -6.77,8.233 -11.773,14.997 -17.954,20.29 -0.729,0.643 -1.313,1.27 -1.794,1.869 -16.997,14.566 -43.677,34.228 -60.258,34.465 -11.773,0.294 -16.776,-8.528 -14.716,-19.996 3.237,-17.938 21.78,-39.11 37.673,-46.462 20.603,-9.41 32.669,8.821 5.592,23.524 -10.301,5.294 -22.663,8.234 -27.666,8.234 -5.886,0 -5.298,2.353 -0.294,2.646 8.241,0.294 21.486,-3.235 30.315,-7.353 27.666,-13.232 29.432,-37.934 -0.589,-38.815 -32.67,-1.176 -71.814,26.76 -71.52,61.753 0.294,15.879 12.95,24.407 30.315,24.407 28.878,-0.263 54.708,-22.281 75.826,-41.644 3.032,-2.522 5.961,-5.293 8.888,-8.218 -7.358,18.82 -11.184,36.17 -9.418,49.108 1.178,9.41 6.476,13.821 10.596,17.35 0.883,0.588 2.649,0 1.471,-1.764 -6.181,-7.352 -4.415,-29.166 4.121,-50.338 7.065,14.117 34.732,32.001 63.575,25.533 z m -34.729,-61.353 c 33.847,-30.288 47.091,-3.234 25.606,13.232 -11.184,8.528 -33.258,14.997 -40.322,10.88 l -1.472,-0.882 c -0.883,-1.47 -1.766,-2.94 -2.354,-4.41 5.591,-6.763 12.066,-12.939 18.542,-18.82 z m 187.854,-34.321 c 13.538,1.47 7.946,-14.998 -5.887,-10.88 -6.181,1.764 -12.067,13.527 -16.482,23.819 -13.538,20.29 -36.201,47.932 -52.095,62.341 -14.127,12.057 -27.077,15.291 -11.184,-7.352 6.475,-9.116 14.716,-18.82 19.425,-28.523 11.184,-24.407 -12.656,-35.287 -31.787,-20.584 -11.184,8.527 -26.194,26.171 -37.967,35.875 -3.238,2.646 -2.355,6.469 0.883,3.822 9.418,-7.646 25.9,-24.995 40.027,-35.287 11.773,-9.116 16.482,-3.234 9.713,4.411 -9.418,10.88 -25.9,29.7 -30.021,41.757 -5.887,17.938 1.177,25.877 12.949,25.877 16.188,0 40.322,-25.289 56.51,-45.285 5.298,-6.764 11.185,-14.703 16.188,-22.349 -14.128,27.348 -28.844,54.989 -47.092,79.984 -25.899,35.287 -58.275,61.752 -88.885,61.752 -22.074,0 -41.205,-14.996 -45.325,-37.051 -0.295,-2.353 -3.238,-2.94 -2.944,0.294 5.003,30.288 28.255,42.05 56.51,42.05 30.904,0 60.63,-17.938 81.527,-39.991 42.088,-44.403 47.092,-94.394 60.042,-122.329 5.887,-12.351 11.48,-12.94 15.895,-12.351 z M 760.4,182.149 c 6.181,-10.586 5.886,-18.82 -8.535,-18.82 -10.89,0.294 -30.609,7.939 -39.733,14.997 -2.061,2.059 -1.178,3.235 1.472,2.059 1.766,-0.588 3.826,-1.764 5.886,-2.646 10.302,-5.587 6.182,6.175 3.826,10.586 -12.361,21.466 -34.142,51.755 -45.62,66.752 -5.499,7.383 -11.699,14.758 -17.667,21.029 -11.053,10.485 -32.883,29.062 -49.399,35.313 -53.567,19.996 14.716,-71.163 20.308,-78.515 12.656,-15.879 40.911,-43.521 49.446,-57.342 6.181,-10.586 5.886,-18.82 -8.535,-18.82 -10.89,0.294 -30.609,7.939 -39.733,14.997 -2.061,2.059 -1.178,3.234 1.472,2.059 1.766,-0.588 3.826,-1.765 5.887,-2.646 10.301,-5.587 6.181,6.175 3.825,10.586 -12.361,21.466 -34.142,51.754 -45.619,66.751 -9.418,12.645 -20.897,25.289 -29.728,32.347 -3.531,2.94 -1.471,5.588 2.062,3.235 3.237,-2.06 7.946,-6.764 13.244,-12.352 -9.713,19.408 -17.659,46.756 7.946,49.991 21.82,2.982 47.764,-19.286 64.541,-35.778 1.849,-1.751 3.877,-3.806 6.02,-6.042 0.504,-0.516 0.996,-1.019 1.472,-1.508 -9.695,19.404 -17.587,46.684 7.985,49.914 27.961,3.822 62.69,-33.817 76.229,-47.638 2.648,-2.646 1.766,-7.058 -2.649,-2.646 -7.946,8.233 -34.729,32.641 -54.154,39.992 -53.567,19.995 14.716,-71.163 20.308,-78.515 12.653,-15.878 40.908,-43.519 49.443,-57.34 z"
               inkscape:connector-curvature="0" /></g></g><defs
           id="defs175"><filter
             height="265.47101"
             width="705.92902"
             y="134.16499"
             x="58.293999"
             filterUnits="userSpaceOnUse"
             id="Adobe_OpacityMaskFilter_1_"><feColorMatrix
               style="color-interpolation-filters:sRGB"
               id="feColorMatrix178"
               result="source"
               values="-1 0 0 0 1  0 -1 0 0 1  0 0 -1 0 1  0 0 0 1 0"
               type="matrix" /></filter></defs><mask
           id="SVGID_4_"
           height="265.471"
           width="705.929"
           y="134.165"
           x="58.294"
           maskUnits="userSpaceOnUse"><g
             style="filter:url(#Adobe_OpacityMaskFilter_1_)"
             id="g181"><image
               sodipodi:absref="/home/sk/s-knibbs.github.io/image/BFF79FDAE99D0745.jpg"
               xlink:href="BFF79FDAE99D0745.jpg"
               overflow="visible"
               width="711"
               height="270"
               transform="translate(56,132)"
               id="image183"
               style="overflow:visible" /></g></mask><g
           style="opacity:0.75"
           id="g185"
           mask="url(#SVGID_4_)"><g
             id="g187"><path
               style="fill:#ffffff"
               id="path189"
               d="m 250.558,228.539 c 4.415,3.529 12.361,1.471 17.659,-4.411 5.592,-6.175 6.475,-14.115 2.061,-17.644 -4.415,-3.529 -12.362,-1.47 -17.66,4.705 -5.593,6.176 -6.475,13.822 -2.06,17.35 z m -12.951,11.469 c -1.177,0 -3.237,2.059 -1.472,2.94 2.354,0.882 3.532,2.94 3.532,5.882 -2.06,12.056 -17.07,25.877 -22.957,30.582 -1.472,1.47 0.589,4.705 2.06,3.528 3.238,-2.646 10.007,-7.939 15.6,-14.997 -9.124,20.29 -26.784,46.462 -33.553,55.577 -26.488,36.758 -66.811,70.574 -94.477,70.574 -22.074,0 -40.911,-14.996 -45.031,-37.051 -0.294,-2.354 -3.532,-2.94 -2.943,0.294 5.003,30.288 28.255,42.05 56.51,42.05 30.904,0 67.178,-22.392 87.126,-45.306 32.279,-37.078 53.265,-79.669 47.673,-103.782 -2.355,-9.115 -8.535,-10.585 -12.068,-10.291 z m 198.579,80.631 c 8.535,-2.059 15.599,-6.835 15.599,-14.222 0,-0.739 -1.472,-0.739 -1.472,0 0,4.432 -5.003,8.046 -10.595,8.928 -13.245,2.059 -39.439,-13.473 -51.801,-29.353 13.245,4.999 40.322,-2.326 52.978,-11.441 11.773,-8.528 16.482,-17.925 17.365,-25.57 1.471,-12.645 -12.362,-19.989 -31.493,-12.638 -12.361,4.999 -27.077,15.883 -42.382,36.173 16.188,-26.76 47.974,-70.279 79.172,-98.215 37.967,-33.817 60.042,-27.347 25.901,8.529 -14.128,14.703 -40.617,33.817 -58.865,42.051 -5.592,2.353 -2.943,5.587 1.177,3.822 19.426,-8.527 45.326,-26.171 60.925,-40.874 46.208,-44.403 7.652,-77.926 -43.56,-30.876 -34.73,32.053 -57.393,65.575 -77.112,109.097 -6.77,8.233 -11.773,14.997 -17.954,20.29 -0.729,0.643 -1.313,1.27 -1.794,1.869 -16.997,14.566 -43.677,34.228 -60.258,34.465 -11.773,0.294 -16.776,-8.528 -14.716,-19.996 3.237,-17.938 21.78,-39.11 37.673,-46.462 20.603,-9.41 32.669,8.821 5.592,23.524 -10.301,5.294 -22.663,8.234 -27.666,8.234 -5.886,0 -5.298,2.353 -0.294,2.646 8.241,0.294 21.486,-3.235 30.315,-7.353 27.666,-13.232 29.432,-37.934 -0.589,-38.815 -32.67,-1.176 -71.814,26.76 -71.52,61.753 0.294,15.879 12.95,24.407 30.315,24.407 28.878,-0.263 54.708,-22.281 75.826,-41.644 3.032,-2.522 5.961,-5.293 8.888,-8.218 -7.358,18.82 -11.184,36.17 -9.418,49.108 1.178,9.41 6.476,13.821 10.596,17.35 0.883,0.588 2.649,0 1.471,-1.764 -6.181,-7.352 -4.415,-29.166 4.121,-50.338 7.065,14.117 34.732,32.001 63.575,25.533 z m -34.729,-61.353 c 33.847,-30.288 47.091,-3.234 25.606,13.232 -11.184,8.528 -33.258,14.997 -40.322,10.88 l -1.472,-0.882 c -0.883,-1.47 -1.766,-2.94 -2.354,-4.41 5.591,-6.763 12.066,-12.939 18.542,-18.82 z m 187.854,-34.321 c 13.538,1.47 7.946,-14.998 -5.887,-10.88 -6.181,1.764 -12.067,13.527 -16.482,23.819 -13.538,20.29 -36.201,47.932 -52.095,62.341 -14.127,12.057 -27.077,15.291 -11.184,-7.352 6.475,-9.116 14.716,-18.82 19.425,-28.523 11.184,-24.407 -12.656,-35.287 -31.787,-20.584 -11.184,8.527 -26.194,26.171 -37.967,35.875 -3.238,2.646 -2.355,6.469 0.883,3.822 9.418,-7.646 25.9,-24.995 40.027,-35.287 11.773,-9.116 16.482,-3.234 9.713,4.411 -9.418,10.88 -25.9,29.7 -30.021,41.757 -5.887,17.938 1.177,25.877 12.949,25.877 16.188,0 40.322,-25.289 56.51,-45.285 5.298,-6.764 11.185,-14.703 16.188,-22.349 -14.128,27.348 -28.844,54.989 -47.092,79.984 -25.899,35.287 -58.275,61.752 -88.885,61.752 -22.074,0 -41.205,-14.996 -45.325,-37.051 -0.295,-2.353 -3.238,-2.94 -2.944,0.294 5.003,30.288 28.255,42.05 56.51,42.05 30.904,0 60.63,-17.938 81.527,-39.991 42.088,-44.403 47.092,-94.394 60.042,-122.329 5.887,-12.351 11.48,-12.94 15.895,-12.351 z M 760.4,182.149 c 6.181,-10.586 5.886,-18.82 -8.535,-18.82 -10.89,0.294 -30.609,7.939 -39.733,14.997 -2.061,2.059 -1.178,3.235 1.472,2.059 1.766,-0.588 3.826,-1.764 5.886,-2.646 10.302,-5.587 6.182,6.175 3.826,10.586 -12.361,21.466 -34.142,51.755 -45.62,66.752 -5.499,7.383 -11.699,14.758 -17.667,21.029 -11.053,10.485 -32.883,29.062 -49.399,35.313 -53.567,19.996 14.716,-71.163 20.308,-78.515 12.656,-15.879 40.911,-43.521 49.446,-57.342 6.181,-10.586 5.886,-18.82 -8.535,-18.82 -10.89,0.294 -30.609,7.939 -39.733,14.997 -2.061,2.059 -1.178,3.234 1.472,2.059 1.766,-0.588 3.826,-1.765 5.887,-2.646 10.301,-5.587 6.181,6.175 3.825,10.586 -12.361,21.466 -34.142,51.754 -45.619,66.751 -9.418,12.645 -20.897,25.289 -29.728,32.347 -3.531,2.94 -1.471,5.588 2.062,3.235 3.237,-2.06 7.946,-6.764 13.244,-12.352 -9.713,19.408 -17.659,46.756 7.946,49.991 21.82,2.982 47.764,-19.286 64.541,-35.778 1.849,-1.751 3.877,-3.806 6.02,-6.042 0.504,-0.516 0.996,-1.019 1.472,-1.508 -9.695,19.404 -17.587,46.684 7.985,49.914 27.961,3.822 62.69,-33.817 76.229,-47.638 2.648,-2.646 1.766,-7.058 -2.649,-2.646 -7.946,8.233 -34.729,32.641 -54.154,39.992 -53.567,19.995 14.716,-71.163 20.308,-78.515 12.653,-15.878 40.908,-43.519 49.443,-57.34 z"
               inkscape:connector-curvature="0" /></g></g></g><g
         style="display:none;opacity:0.3"
         display="none"
         id="highlight_1_"><g
           style="display:inline"
           id="g192"
           display="inline"><path
             style="fill:#ffffff"
             id="path194"
             d="m 661.764,281.891 c -0.14,0.146 -0.274,0.283 -0.412,0.427 -4.196,9.143 -7.592,19.445 -7.32,28.013 0.295,-9.433 4.534,-20.601 9.204,-29.947 -0.476,0.488 -0.968,0.991 -1.472,1.507 z"
             inkscape:connector-curvature="0" /><path
             style="fill:#ffffff"
             id="path196"
             d="m 581.332,275.736 c -4.196,9.142 -7.591,19.445 -7.318,28.012 0.295,-9.459 4.558,-20.665 9.243,-30.028 -0.652,0.687 -1.293,1.36 -1.925,2.016 z"
             inkscape:connector-curvature="0" /><path
             style="fill:#ffffff"
             id="path198"
             d="m 711.666,180.841 c 0.136,-0.166 0.285,-0.335 0.466,-0.516 9.124,-7.057 28.844,-14.703 39.733,-14.997 8.229,0 11.854,2.684 12.304,6.954 0.53,-5.417 -2.853,-8.954 -12.304,-8.954 -10.89,0.294 -30.609,7.939 -39.733,14.997 -1.413,1.413 -1.442,2.409 -0.466,2.516 z"
             inkscape:connector-curvature="0" /><path
             style="fill:#ffffff"
             id="path200"
             d="m 744.801,278.013 c -7.946,8.233 -34.729,32.641 -54.154,39.992 -14.205,5.303 -19.84,2.787 -20.35,-3.907 -0.462,8.146 4.812,11.707 20.35,5.907 19.425,-7.352 46.208,-31.759 54.154,-39.992 2.147,-2.146 3.452,-2.196 3.929,-1.386 0.747,-2.206 -0.558,-3.982 -3.929,-0.614 z"
             inkscape:connector-curvature="0" /><path
             style="fill:#ffffff"
             id="path202"
             d="m 567.951,282.836 c 8.83,-7.058 20.31,-19.702 29.728,-32.347 11.478,-14.997 33.258,-45.285 45.619,-66.751 1.331,-2.492 3.223,-7.329 2.762,-10.06 -0.325,2.695 -1.716,6.101 -2.762,8.06 -12.361,21.466 -34.142,51.754 -45.619,66.751 -9.418,12.645 -20.897,25.289 -29.728,32.347 -1.883,1.568 -2.166,3.045 -1.493,3.732 0.289,-0.539 0.768,-1.128 1.493,-1.732 z"
             inkscape:connector-curvature="0" /><path
             style="fill:#ffffff"
             id="path204"
             d="m 631.648,174.255 c 0.137,-0.165 0.286,-0.335 0.466,-0.515 9.124,-7.058 28.844,-14.703 39.733,-14.997 8.229,0 11.854,2.684 12.305,6.954 0.529,-5.417 -2.854,-8.954 -12.305,-8.954 -10.89,0.294 -30.609,7.939 -39.733,14.997 -1.413,1.411 -1.441,2.407 -0.466,2.515 z"
             inkscape:connector-curvature="0" /><path
             style="fill:#ffffff"
             id="path206"
             d="m 723.315,190.324 c 1.33,-2.492 3.223,-7.329 2.762,-10.059 -0.325,2.695 -1.716,6.101 -2.762,8.059 -12.361,21.466 -34.142,51.755 -45.62,66.752 -5.499,7.383 -11.699,14.758 -17.667,21.029 -11.053,10.485 -32.883,29.062 -49.399,35.313 -14.205,5.302 -19.84,2.787 -20.349,-3.907 -0.462,8.146 4.812,11.707 20.349,5.907 16.517,-6.252 38.347,-24.828 49.399,-35.313 5.968,-6.271 12.168,-13.646 17.667,-21.029 11.479,-14.997 33.259,-45.285 45.62,-66.752 z"
             inkscape:connector-curvature="0" /></g><g
           style="display:inline"
           id="g208"
           display="inline"><path
             style="fill:#ffffff"
             id="path210"
             d="m 514.847,300.244 c -8.886,7.584 -17.301,11.671 -18.37,8.028 -1.29,6.727 8.236,2.62 18.37,-6.028 15.894,-14.409 38.557,-42.051 52.095,-62.341 4.415,-10.292 10.302,-22.055 16.482,-23.819 7.621,-2.268 12.73,1.711 13.528,5.497 0.98,-4.139 -4.525,-10.176 -13.528,-7.497 -6.181,1.764 -12.067,13.527 -16.482,23.819 -13.539,20.29 -36.202,47.932 -52.095,62.341 z"
             inkscape:connector-curvature="0" /><path
             style="fill:#ffffff"
             id="path212"
             d="m 506.95,247.412 c -0.327,1.483 -1.302,3.283 -2.993,5.194 -9.418,10.88 -25.9,29.7 -30.021,41.757 -1.59,4.845 -2.228,8.954 -2.091,12.381 0.132,-2.994 0.799,-6.446 2.091,-10.381 4.12,-12.057 20.603,-30.877 30.021,-41.757 2.558,-2.888 3.475,-5.523 2.993,-7.194 z"
             inkscape:connector-curvature="0" /><path
             style="fill:#ffffff"
             id="path214"
             d="m 453.334,281.66 c 11.773,-9.704 26.783,-27.348 37.967,-35.875 15.42,-11.852 33.887,-7.074 34.619,8.003 0.87,-16.64 -18.535,-22.364 -34.619,-10.003 -11.184,8.527 -26.194,26.171 -37.967,35.875 -1.911,1.562 -2.378,3.524 -1.781,4.334 0.299,-0.759 0.872,-1.592 1.781,-2.334 z"
             inkscape:connector-curvature="0" /><path
             style="fill:#ffffff"
             id="path216"
             d="m 375.458,358.222 c 0.549,-1.602 2.582,-0.866 2.824,1.07 4.12,22.055 23.251,37.051 45.325,37.051 30.609,0 62.985,-26.465 88.885,-61.752 18.248,-24.995 32.964,-52.637 47.092,-79.984 -1.411,2.155 -2.896,4.334 -4.414,6.504 -12.802,24.541 -26.319,49.074 -42.678,71.48 -25.899,35.287 -58.275,61.752 -88.885,61.752 -22.074,0 -41.205,-14.996 -45.325,-37.051 -0.295,-2.353 -3.238,-2.94 -2.944,0.294 0.037,0.216 0.082,0.421 0.12,0.636 z"
             inkscape:connector-curvature="0" /></g><g
           style="display:inline"
           id="g218"
           display="inline"><path
             style="fill:#ffffff"
             id="path220"
             d="m 320.568,279.74 c -10.301,5.294 -22.663,8.234 -27.666,8.234 -4.696,0 -5.261,1.495 -2.761,2.249 0.676,-0.152 1.583,-0.249 2.761,-0.249 5.003,0 17.365,-2.94 27.666,-8.234 11.909,-6.466 16.244,-13.614 15.613,-18.794 -0.555,4.932 -5.171,11.124 -15.613,16.794 z"
             inkscape:connector-curvature="0" /><path
             style="fill:#ffffff"
             id="path222"
             d="m 364.624,283.953 c -5.54,14.862 -8.75,28.675 -8.607,39.965 0.25,-11.731 3.885,-25.968 9.827,-41.166 -0.406,0.406 -0.814,0.802 -1.22,1.201 z"
             inkscape:connector-curvature="0" /><path
             style="fill:#ffffff"
             id="path224"
             d="m 276.883,308.513 c -0.39,9.535 4.716,16.421 15.136,16.161 16.581,-0.237 43.261,-19.898 60.258,-34.465 0.48,-0.6 1.064,-1.227 1.794,-1.869 6.181,-5.293 11.184,-12.057 17.954,-20.29 19.72,-43.521 42.382,-77.044 77.112,-109.097 34.491,-31.688 63.238,-26.826 64.218,-6.708 0.864,-21.762 -28.612,-28.003 -64.218,4.708 -34.73,32.053 -57.393,65.575 -77.112,109.097 -6.77,8.233 -11.773,14.997 -17.954,20.29 -0.729,0.643 -1.313,1.27 -1.794,1.869 -16.997,14.566 -43.677,34.228 -60.258,34.465 -9.676,0.241 -14.769,-5.68 -15.136,-14.161 z"
             inkscape:connector-curvature="0" /><path
             style="fill:#ffffff"
             id="path226"
             d="m 430.594,224.881 c -3.229,1.358 -3.702,3.006 -2.738,3.819 0.477,-0.601 1.353,-1.237 2.738,-1.819 18.248,-8.234 44.737,-27.348 58.865,-42.051 12.647,-13.291 17.574,-22.541 16.842,-27.207 -0.646,5.083 -5.802,13.605 -16.842,25.207 -14.128,14.703 -40.617,33.817 -58.865,42.051 z"
             inkscape:connector-curvature="0" /><path
             style="fill:#ffffff"
             id="path228"
             d="m 427.062,274.519 c 7.566,-5.8 10.82,-12.909 10.389,-18.367 -0.397,5.121 -3.717,11.254 -10.389,16.367 -11.184,8.528 -33.258,14.997 -40.322,10.88 l -1.472,-0.882 c -0.623,-1.036 -1.24,-2.073 -1.759,-3.109 -0.197,0.233 -0.4,0.463 -0.595,0.699 0.589,1.47 1.472,2.94 2.354,4.41 l 1.472,0.882 c 7.064,4.117 29.138,-2.352 40.322,-10.88 z"
             inkscape:connector-curvature="0" /><path
             style="fill:#ffffff"
             id="path230"
             d="m 450.313,306 c 0,5 -5.003,8.255 -10.595,9.137 -12.496,1.942 -36.513,-11.67 -49.571,-26.562 -0.777,-0.197 -1.527,-0.369 -2.23,-0.634 12.362,15.879 38.556,31.438 51.801,29.379 5.592,-0.883 10.595,-4.483 10.595,-8.916 0,-0.603 0.971,-0.906 1.331,-0.524 0.083,-0.545 0.141,-0.879 0.141,-1.879 l -1.472,0 z"
             inkscape:connector-curvature="0" /><path
             style="fill:#ffffff"
             id="path232"
             d="m 322.334,246.453 c 14.172,0.417 21.252,6.143 21.876,13.463 0.573,-8.252 -6.438,-15.009 -21.876,-15.463 -32.67,-1.176 -71.814,26.76 -71.52,61.753 0.002,0.12 0.012,0.235 0.015,0.354 0.921,-34.218 39.349,-61.264 71.505,-60.107 z"
             inkscape:connector-curvature="0" /><path
             style="fill:#ffffff"
             id="path234"
             d="m 426.768,236.343 c -10.773,4.357 -23.336,13.189 -36.518,28.818 -2.124,3.287 -4.092,6.426 -5.864,9.354 15.305,-20.29 30.021,-31.174 42.382,-36.173 17.671,-6.791 30.812,-1.038 31.557,9.844 0.808,-12.152 -12.832,-19.039 -31.557,-11.843 z"
             inkscape:connector-curvature="0" /><path
             style="fill:#ffffff"
             id="path236"
             d="m 364.828,331.673 c -0.115,6.95 1.041,12.514 3.552,15.626 0.51,-0.253 0.769,-0.87 0.112,-1.853 -2.343,-2.787 -3.541,-7.654 -3.664,-13.773 z"
             inkscape:connector-curvature="0" /></g><g
           style="display:inline"
           id="g238"
           display="inline"><path
             style="fill:#ffffff"
             id="path240"
             d="m 236.002,242.865 c 0.458,-0.489 1.109,-0.857 1.605,-0.857 3.532,-0.294 9.713,1.176 12.067,10.292 0.521,2.247 0.81,4.655 0.882,7.203 0.05,-3.293 -0.227,-6.379 -0.882,-9.203 -2.354,-9.116 -8.535,-10.586 -12.067,-10.292 -1.143,0 -3.107,1.937 -1.605,2.857 z"
             inkscape:connector-curvature="0" /><path
             style="fill:#ffffff"
             id="path242"
             d="m 58.45,357.785 c 0.575,-1.344 2.627,-0.595 2.859,1.259 4.12,22.055 22.957,37.051 45.031,37.051 27.667,0 67.989,-33.816 94.477,-70.574 6.77,-9.115 24.429,-35.287 33.553,-55.577 -0.702,0.886 -1.422,1.743 -2.151,2.571 -9.519,19.483 -25.13,42.562 -31.402,51.006 -26.488,36.758 -66.811,70.574 -94.477,70.574 -22.074,0 -40.911,-14.996 -45.031,-37.051 -0.294,-2.354 -3.532,-2.94 -2.943,0.294 0.025,0.151 0.057,0.296 0.084,0.447 z"
             inkscape:connector-curvature="0" /><path
             style="fill:#ffffff"
             id="path244"
             d="m 216.71,281.412 c 5.887,-4.705 20.897,-18.526 22.957,-30.582 0,-0.505 -0.047,-0.974 -0.117,-1.425 -2.426,11.918 -17.047,25.376 -22.84,30.007 -0.628,0.628 -0.61,1.576 -0.271,2.367 0.074,-0.13 0.159,-0.255 0.271,-0.367 z"
             inkscape:connector-curvature="0" /></g><path
           style="display:inline;fill:#ffffff"
           id="path246"
           d="m 252.618,213.19 c 5.298,-6.175 13.245,-8.234 17.66,-4.705 1.633,1.306 2.537,3.217 2.75,5.417 0.248,-3.03 -0.639,-5.73 -2.75,-7.417 -4.415,-3.529 -12.362,-1.47 -17.66,4.705 -3.528,3.896 -5.176,8.374 -4.808,12.038 0.278,-3.221 1.899,-6.827 4.808,-10.038 z"
           display="inline"
           inkscape:connector-curvature="0" /></g></g></g></svg>